# This file uses centimeters as units for non-parametric coordinates.

mtllib boomerang.mtl
g default
v 2.164589 0.340412 3.682191
v 2.451604 0.327060 3.639672
v 2.164589 0.429011 3.682191
v 2.451604 0.442364 3.639672
v 2.164589 0.429011 3.290056
v 2.451604 0.442364 3.332575
v 2.164589 0.340412 3.290056
v 2.451604 0.327060 3.332575
v 2.724910 0.361416 4.588121
v 2.821613 0.361416 4.521749
v 2.821613 0.408007 4.521749
v 2.724910 0.408007 4.588121
v 2.724910 0.408007 2.384126
v 2.821613 0.408007 2.450498
v 2.821613 0.361416 2.450498
v 2.724910 0.361416 2.384126
vt 0.488877 0.457479
vt 0.568809 0.457479
vt 0.488877 0.503814
vt 0.407004 0.456720
vt 0.506136 0.642917
vt 0.586068 0.642917
vt 0.506136 0.689252
vt 0.586068 0.689252
vt 0.680688 0.363291
vt 0.760620 0.363291
vt 0.751445 0.224336
vt 0.751445 0.270670
vt 0.511649 0.224336
vt 0.511649 0.270670
vt 0.225674 0.325877
vt 0.568809 0.457479
vt 0.407004 0.456720
vt 0.488877 0.503814
vt 0.300203 0.214792
vt 0.586068 0.642917
vt 0.586068 0.689252
vt 0.506136 0.689252
vt 0.488877 0.457479
vt 0.225674 0.372212
vt 0.305606 0.372212
vt 0.305606 0.325877
vt 0.591581 0.266356
vt 0.591581 0.266356
vt 0.327072 0.456720
vt 0.327072 0.456720
vt 0.671513 0.266356
vt 0.671513 0.266356
vt 0.568809 0.503814
vt 0.568809 0.503814
vt 0.671513 0.220021
vt 0.568809 0.457479
vt 0.568809 0.457479
vt 0.591581 0.220021
vt 0.488877 0.457479
vt 0.488877 0.457479
vt 0.671513 0.317005
vt 0.760620 0.316956
vt 0.591581 0.317005
vt 0.680688 0.316956
vt 0.506136 0.642917
vt 0.300203 0.261127
vt 0.380135 0.261127
vt 0.380135 0.214792
vn 0.565889 0.000000 0.824481
vn 0.565889 0.000000 0.824481
vn 0.565889 0.000000 0.824481
vn 0.565889 0.000000 0.824481
vn -0.031793 0.999148 0.026324
vn -0.030391 0.999122 0.028835
vn -0.030391 0.999122 -0.028835
vn -0.031793 0.999148 -0.026324
vn 0.565886 0.000000 -0.824483
vn 0.565886 0.000000 -0.824483
vn 0.565886 0.000000 -0.824483
vn 0.565886 0.000000 -0.824483
vn -0.031793 -0.999148 -0.026324
vn -0.030391 -0.999122 -0.028835
vn -0.030391 -0.999122 0.028835
vn -0.031793 -0.999148 0.026324
vn 0.963399 0.000000 -0.268071
vn 0.963399 0.000000 0.268071
vn 0.963399 0.000000 0.268070
vn 0.963399 0.000000 -0.268071
vn -1.000000 -0.000000 0.000000
vn -1.000000 -0.000000 0.000000
vn -1.000000 -0.000000 0.000000
vn -1.000000 -0.000000 0.000000
vn -0.022638 -0.998831 0.042705
vn -0.022638 -0.998831 0.042705
vn 0.922155 0.000000 -0.386820
vn 0.922155 0.000000 -0.386820
vn -0.022638 0.998831 0.042705
vn -0.022638 0.998831 0.042705
vn -0.850472 -0.000000 0.526020
vn -0.850472 -0.000000 0.526020
vn -0.850472 -0.000000 0.526020
vn -0.850472 -0.000000 0.526020
vn -0.022638 0.998831 -0.042705
vn -0.022638 0.998831 -0.042705
vn 0.922155 0.000000 0.386820
vn 0.922155 0.000000 0.386820
vn -0.022638 -0.998831 -0.042705
vn -0.022638 -0.998831 -0.042705
vn -0.850472 -0.000000 -0.526020
vn -0.850472 -0.000000 -0.526020
vn -0.850472 -0.000000 -0.526020
vn -0.850472 -0.000000 -0.526020
s off
g pCube2
usemtl initialShadingGroup
f 9/15/1 10/26/2 11/25/3 12/24/4
s 1
f 3/28/5 4/31/6 6/41/7 5/43/8
s off
f 13/19/9 14/48/10 15/47/11 16/46/12
s 2
f 7/44/13 8/42/14 2/10/15 1/9/16
s 3
f 2/35/17 8/11/18 6/12/19 4/32/20
s off
f 7/13/21 1/38/22 3/27/23 5/14/24
s 2
f 1/1/16 2/36/15 10/37/25 9/23/26
s 3
f 2/2/17 4/33/20 11/34/27 10/16/28
s 1
f 4/4/6 3/29/5 12/30/29 11/17/30
s off
f 3/3/31 1/39/32 9/40/33 12/18/34
s 1
f 5/5/8 6/6/7 14/20/35 13/45/36
s 3
f 6/6/19 8/8/18 15/21/37 14/20/38
s 2
f 8/8/14 7/7/13 16/22/39 15/21/40
s off
f 7/7/41 5/5/42 13/45/43 16/22/44
