# This file uses centimeters as units for non-parametric coordinates.

mtllib groundNew.mtl
g default
v 8.545081 0.404770 7.928130
v 8.545081 0.888249 7.928130
v 8.545081 0.888249 -7.703606
v 8.545081 0.404770 -7.703606
v -5.666283 1.524762 7.407071
v 8.055034 1.524762 7.407071
v 8.055034 1.279403 -7.182548
v -5.666283 1.524762 -7.182548
v 8.192077 0.404770 4.923576
v 8.310776 0.888249 4.923576
v 7.702029 1.217926 4.602821
v -5.666283 1.524762 4.602821
v 8.704361 0.404770 1.114924
v 8.704361 0.888249 1.114924
v 8.214313 1.434365 1.048080
v -5.666283 1.524762 1.048080
v 8.316641 0.404770 -2.909638
v 7.957868 0.888249 -2.909638
v 7.826594 1.279403 -2.668615
v -5.666283 1.524762 -3.262046
v 4.906390 1.193304 4.602821
v 4.868526 0.991890 -2.798714
v 3.516279 1.524762 7.407071
v 4.038886 1.453688 1.048080
v 4.195312 1.524762 -7.182548
v 0.733146 1.283701 7.407071
v 1.286056 0.995840 1.048080
v 0.986278 1.172038 -7.182549
v -0.657404 1.283701 4.602821
v 0.142767 1.172038 -3.006558
v -2.761758 1.172038 -3.134302
v -3.721225 1.524762 4.602821
v -3.746946 1.524762 4.602821
v -3.729011 1.524762 4.614047
v -3.719670 1.283353 4.583557
v -3.434318 1.283353 1.048080
v -3.681819 1.524762 -7.182548
vt 0.625000 0.000000
vt 0.625000 0.250000
vt 0.625000 0.500000
vt 0.875000 0.000000
vt 0.875000 0.250000
vt 0.375000 0.250000
vt 0.625000 0.250000
vt 0.625000 0.500000
vt 0.375000 0.500000
vt 0.673052 0.000000
vt 0.625000 0.298052
vt 0.673052 0.250000
vt 0.625000 0.298052
vt 0.375000 0.298052
vt 0.733964 0.000000
vt 0.625000 0.358964
vt 0.733964 0.250000
vt 0.625000 0.358964
vt 0.375000 0.358964
vt 0.807820 0.000000
vt 0.625000 0.432820
vt 0.807820 0.250000
vt 0.625000 0.432820
vt 0.375000 0.432820
vt 0.572719 0.298052
vt 0.570192 0.432820
vt 0.542305 0.250000
vt 0.549797 0.358964
vt 0.554677 0.500000
vt 0.491596 0.250000
vt 0.500217 0.358964
vt 0.496208 0.500000
vt 0.468671 0.298052
vt 0.482632 0.432820
vt 0.428816 0.432820
vt 0.411374 0.298052
vt 0.410893 0.298052
vt 0.411216 0.297860
vt 0.411377 0.298382
vt 0.415199 0.358964
vt 0.411157 0.500000
vn 0.000000 1.000000 0.000013
vn 0.000000 1.000000 0.000013
vn 0.000000 1.000000 0.000013
vn 0.987912 -0.121272 -0.096555
vn 0.987912 -0.121272 -0.096555
vn 0.987912 -0.121272 -0.096555
vn 0.987912 -0.121272 -0.096555
vn 0.701908 0.704008 -0.108155
vn 0.701908 0.704008 -0.108155
vn 0.701908 0.704008 -0.108155
vn 0.701908 0.704008 -0.108155
vn 0.985707 -0.121001 0.117223
vn 0.985707 -0.121001 0.117223
vn 0.985707 -0.121001 0.117223
vn 0.985707 -0.121001 0.117223
vn 0.599179 0.794709 0.097073
vn 0.599179 0.794709 0.097073
vn 0.599179 0.794709 0.097073
vn 0.599179 0.794709 0.097073
vn 0.000000 0.079546 -0.996831
vn 0.000000 0.079546 -0.996831
vn 0.000000 0.079546 -0.996831
vn 0.929471 0.344863 -0.130973
vn 0.929471 0.344863 -0.130973
vn 0.929471 0.344863 -0.130973
vn 0.929471 0.344863 -0.130973
vn 0.814985 0.564549 -0.130709
vn 0.814985 0.564549 -0.130709
vn 0.814985 0.564549 -0.130709
vn 0.814985 0.564549 -0.130709
vn -0.001933 0.999032 0.043959
vn -0.001933 0.999031 0.043959
vn -0.001933 0.999031 0.043959
vn 0.934578 0.346761 0.079505
vn 0.934578 0.346761 0.079505
vn 0.934578 0.346761 0.079505
vn 0.934578 0.346761 0.079505
vn 0.813749 0.576826 0.071309
vn 0.813749 0.576826 0.071309
vn 0.813749 0.576826 0.071309
vn 0.813749 0.576826 0.071309
vn 0.000000 1.000000 0.000000
vn 0.000000 1.000000 0.000000
vn 0.000000 1.000000 0.000000
vn -0.008755 0.994148 -0.107676
vn -0.008755 0.994148 -0.107676
vn -0.008755 0.994148 -0.107676
vn -0.008791 0.998189 0.059510
vn -0.008791 0.998189 0.059510
vn -0.008791 0.998189 0.059510
vn -0.095318 0.994947 -0.031539
vn -0.095318 0.994947 -0.031539
vn -0.095318 0.994947 -0.031539
vn -0.096526 0.995319 -0.004885
vn -0.096526 0.995318 -0.004885
vn -0.096526 0.995319 -0.004885
vn 0.000000 0.993087 -0.117381
vn 0.000000 0.993087 -0.117381
vn 0.000000 0.993087 -0.117381
vn 0.004616 0.997399 0.071933
vn 0.004616 0.997399 0.071933
vn 0.004616 0.997399 0.071933
vn 0.004595 0.992978 -0.118214
vn 0.004595 0.992978 -0.118214
vn 0.004595 0.992978 -0.118214
vn 0.063050 0.991832 0.110879
vn 0.063050 0.991832 0.110879
vn 0.063050 0.991832 0.110879
vn -0.085201 0.983675 -0.158504
vn -0.085201 0.983675 -0.158504
vn -0.085201 0.983675 -0.158504
vn -0.163041 0.980288 0.111594
vn -0.163041 0.980288 0.111595
vn -0.163041 0.980288 0.111595
vn -0.162159 0.974985 -0.152017
vn -0.162159 0.974985 -0.152017
vn -0.162159 0.974985 -0.152017
vn -0.108238 0.984734 0.136320
vn -0.108238 0.984734 0.136320
vn -0.108238 0.984734 0.136320
vn 0.016245 0.999836 -0.008055
vn 0.016245 0.999836 -0.008055
vn 0.016245 0.999836 -0.008055
vn 0.016203 0.997280 -0.071901
vn 0.016203 0.997280 -0.071901
vn 0.016203 0.997280 -0.071901
vn 0.036619 0.998782 0.033077
vn 0.036619 0.998782 0.033077
vn 0.036619 0.998782 0.033077
vn 0.037757 0.999258 0.007626
vn 0.037757 0.999258 0.007626
vn 0.037757 0.999258 0.007626
vn 0.070979 0.996831 0.035928
vn 0.070979 0.996831 0.035928
vn 0.070979 0.996831 0.035928
vn 0.070979 0.996831 0.035928
vn 0.114998 0.993358 -0.003913
vn 0.114998 0.993358 -0.003913
vn 0.114998 0.993358 -0.003913
vn 0.114998 0.993358 -0.003913
vn 0.114481 0.993075 -0.026383
vn 0.114481 0.993075 -0.026383
vn 0.114481 0.993075 -0.026383
vn 0.114481 0.993075 -0.026383
vn 0.114481 0.993075 -0.026383
vn 0.000000 1.000000 0.000000
vn 0.000000 1.000000 0.000000
vn 0.000000 1.000000 0.000000
vn 0.000000 1.000000 0.000000
vn 0.037630 0.998951 0.026100
vn 0.037630 0.998951 0.026100
vn 0.037630 0.998951 0.026100
vn 0.078043 0.996213 -0.038329
vn 0.078043 0.996213 -0.038329
vn 0.078043 0.996213 -0.038329
vn 0.078043 0.996213 -0.038329
vn 0.000806 0.989275 -0.146062
vn 0.000806 0.989275 -0.146062
vn 0.000806 0.989275 -0.146062
vn 0.000806 0.989275 -0.146062
vn 0.060796 0.998138 0.004907
vn 0.060796 0.998138 0.004907
vn 0.060796 0.998138 0.004907
vn 0.060788 0.998010 -0.016787
vn 0.060788 0.998010 -0.016787
vn 0.060788 0.998010 -0.016787
vn 0.075163 0.994740 0.069589
vn 0.075163 0.994740 0.069589
vn 0.075163 0.994740 0.069589
s off
g pCube1
usemtl initialShadingGroup
f 33/37/1 34/38/2 32/36/3
f 1/1/4 9/10/5 10/12/6 2/2/7
f 2/2/8 10/11/9 11/13/10 6/7/11
f 9/10/12 13/15/13 14/17/14 10/12/15
f 11/13/16 10/11/17 14/16/18 15/18/19
f 32/36/20 35/39/21 33/37/22
f 13/15/23 17/20/24 18/22/25 14/17/26
f 15/18/27 14/16/28 18/21/29 19/23/30
f 31/35/31 27/31/32 30/34/33
f 17/20/34 4/4/35 3/5/36 18/22/37
f 19/23/38 18/21/39 3/3/40 7/8/41
f 28/32/42 31/35/43 30/34/44
f 21/25/45 6/7/46 11/13/47
f 15/18/48 21/25/49 11/13/50
f 22/26/51 15/18/52 19/23/53
f 7/8/54 22/26/55 19/23/56
f 21/25/57 23/27/58 6/7/59
f 24/28/60 21/25/61 15/18/62
f 22/26/63 24/28/64 15/18/65
f 25/29/66 22/26/67 7/8/68
f 21/25/69 26/30/70 23/27/71
f 27/31/72 21/25/73 24/28/74
f 22/26/75 27/31/76 24/28/77
f 28/32/78 22/26/79 25/29/80
f 29/33/81 26/30/82 21/25/83
f 27/31/84 29/33/85 21/25/86
f 30/34/87 27/31/88 22/26/89
f 28/32/90 30/34/91 22/26/92
f 20/24/93 31/35/94 37/41/95 8/9/96
f 16/19/97 36/40/98 31/35/99 20/24/100
f 12/14/101 33/37/102 35/39/103 36/40/104 16/19/105
f 5/6/106 34/38/107 33/37/108 12/14/109
f 5/6/110 26/30/111 34/38/112
f 32/36/113 34/38/114 26/30/115 29/33/116
f 27/31/117 35/39/118 32/36/119 29/33/120
f 36/40/121 35/39/122 27/31/123
f 31/35/124 36/40/125 27/31/126
f 37/41/127 31/35/128 28/32/129
