# This file uses centimeters as units for non-parametric coordinates.

mtllib hammer.mtl
g default
v -0.062626 0.273527 2.458418
v -0.062626 0.404658 2.458418
v -0.062626 0.404658 2.265470
v -0.062626 0.273527 2.265470
v -0.530528 0.185011 1.972624
v -0.530528 0.142260 2.087999
v -0.587568 0.182511 2.084826
v -0.530528 0.142260 2.635889
v -0.530528 0.185011 2.751264
v -0.587568 0.182511 2.639062
v -0.530528 0.493174 2.751264
v -0.530528 0.535925 2.635889
v -0.587568 0.495674 2.639062
v -0.530528 0.535925 2.087999
v -0.530528 0.493174 1.972624
v -0.587568 0.495674 2.084826
v -0.127272 0.202200 1.998498
v -0.062626 0.198832 2.170102
v -0.127272 0.159449 2.109811
v -0.127272 0.202200 2.725390
v -0.127272 0.159449 2.614077
v -0.062626 0.198832 2.553786
v -0.127272 0.518736 2.614077
v -0.127272 0.475985 2.725390
v -0.062626 0.479353 2.553786
v -0.127272 0.475985 1.998498
v -0.127272 0.518736 2.109811
v -0.062626 0.479353 2.170102
v 0.728010 0.273527 2.422449
v 0.709264 0.292278 2.441608
v 0.709259 0.404658 2.422853
v 0.709264 0.385907 2.441608
v 0.728010 0.385907 2.422449
v 0.709264 0.385907 2.282280
v 0.709259 0.404658 2.301035
v 0.728010 0.385907 2.301439
v 0.709264 0.292278 2.282280
v 0.728010 0.273527 2.301439
v 0.069409 0.404658 2.287101
v 0.069404 0.385907 2.268346
v 0.031910 0.404658 2.267529
v 0.069404 0.292278 2.268346
v 0.031911 0.273527 2.267529
v 0.031911 0.273527 2.456359
v 0.069404 0.292278 2.455542
v 0.069409 0.404658 2.436787
v 0.031910 0.404658 2.456359
v 0.069404 0.385907 2.455542
vt 0.320596 0.192301
vt 0.425557 0.274942
vt 0.320596 0.274942
vt 0.147404 0.726256
vt 0.276695 0.726241
vt 0.276695 0.791181
vt 0.147404 0.790158
vt 0.147404 0.790063
vt 0.156791 0.717391
vt 0.285275 0.727359
vt 0.275889 0.800031
vt 0.147404 0.800031
vt 0.338150 0.315982
vt 0.155984 0.726241
vt 0.276681 0.717391
vt 0.285275 0.727264
vt 0.285275 0.791166
vt 0.424338 0.398623
vt 0.155998 0.800031
vt 0.337343 0.389773
vt 0.147404 0.726256
vt 0.328763 0.315982
vt 0.425131 0.315982
vt 0.285275 0.717391
vt 0.285275 0.791166
vt 0.433725 0.398623
vt 0.337357 0.398623
vt 0.781663 0.618123
vt 0.679190 0.690986
vt 0.784152 0.846492
vt 0.781663 0.856268
vt 0.696718 0.856268
vt 0.781663 0.596527
vt 0.796301 0.608345
vt 0.876965 0.608345
vt 0.781663 0.681633
vt 0.876698 0.596527
vt 0.876698 0.525704
vt 0.889114 0.537703
vt 0.696719 0.682742
vt 0.696718 0.702803
vt 0.691741 0.525704
vt 0.696718 0.537521
vt 0.696718 0.596528
vt 0.691741 0.608345
vt 0.425557 0.192301
vt 0.691741 0.690986
vt 0.679190 0.773627
vt 0.691741 0.773627
vt 0.679190 0.856268
vt 0.691741 0.856268
vt 0.784152 0.783403
vt 0.781663 0.537521
vt 0.796568 0.525704
vt 0.696718 0.761809
vt 0.781663 0.702803
vt 0.781663 0.761809
vt 0.796568 0.596527
vt 0.889114 0.596558
vt 0.696719 0.616948
vt 0.147404 0.800031
vt 0.320596 0.274942
vt 0.320596 0.274942
vt 0.328763 0.398623
vt 0.337357 0.398623
vt 0.155998 0.800031
vt 0.155998 0.800031
vt 0.275889 0.800031
vt 0.424338 0.398623
vt 0.424338 0.398623
vt 0.425557 0.274942
vt 0.415056 0.283110
vt 0.285275 0.800031
vt 0.285275 0.800031
vt 0.285275 0.791166
vt 0.285275 0.791166
vt 0.285275 0.791166
vt 0.285275 0.727359
vt 0.285275 0.727359
vt 0.285275 0.727359
vt 0.415056 0.200469
vt 0.425557 0.192301
vt 0.433725 0.315982
vt 0.285275 0.717391
vt 0.425131 0.315982
vt 0.276681 0.717391
vt 0.276681 0.717391
vt 0.156791 0.717391
vt 0.338150 0.315982
vt 0.338150 0.315982
vt 0.320596 0.192301
vt 0.320596 0.192301
vt 0.147404 0.717391
vt 0.147404 0.717391
vt 0.147404 0.790063
vt 0.147404 0.790063
vt 0.147404 0.790063
vt 0.147404 0.726256
vt 0.147404 0.726256
vt 0.147404 0.726256
vt 0.147404 0.790158
vt 0.147404 0.790158
vt 0.147404 0.790158
vt 0.337357 0.398623
vt 0.337357 0.398623
vt 0.155998 0.800031
vt 0.337343 0.389773
vt 0.155984 0.791181
vt 0.155984 0.791181
vt 0.276695 0.791181
vt 0.425145 0.389772
vt 0.425145 0.389772
vt 0.424338 0.398623
vt 0.275889 0.800031
vt 0.275889 0.800031
vt 0.285275 0.791166
vt 0.285275 0.791166
vt 0.285275 0.791166
vt 0.425145 0.324833
vt 0.425145 0.324833
vt 0.276695 0.726241
vt 0.285275 0.727264
vt 0.285275 0.727264
vt 0.285275 0.727264
vt 0.425131 0.315982
vt 0.425131 0.315982
vt 0.276681 0.717391
vt 0.147404 0.726256
vt 0.147404 0.726256
vt 0.147404 0.726256
vt 0.337343 0.324833
vt 0.337343 0.324833
vt 0.155984 0.726241
vt 0.338150 0.315982
vt 0.156791 0.717391
vt 0.156791 0.717391
vt 0.320596 0.274942
vt 0.679190 0.608345
vt 0.415056 0.200469
vt 0.320596 0.192301
vt 0.415056 0.283110
vt 0.679190 0.525704
vn 0.000000 1.000000 0.000000
vn 0.000000 1.000000 0.000000
vn 0.000000 1.000000 0.000000
vn 0.000000 1.000000 0.000000
vn 1.000000 0.000000 0.000000
vn 1.000000 0.000000 0.000000
vn 1.000000 0.000000 0.000000
vn 1.000000 0.000000 0.000000
vn 1.000000 -0.000000 0.000000
vn 1.000000 -0.000000 0.000000
vn 1.000000 -0.000000 0.000000
vn 1.000000 -0.000000 0.000000
vn 0.042588 -0.999093 0.000000
vn 0.042588 -0.999093 0.000000
vn 0.042588 -0.999093 0.000000
vn 0.042588 -0.999093 0.000000
vn -1.000000 0.000000 0.000000
vn -1.000000 0.000000 0.000000
vn -1.000000 0.000000 0.000000
vn -1.000000 0.000000 0.000000
vn 0.064031 0.000000 -0.997948
vn 0.064031 0.000000 -0.997948
vn 0.064031 0.000000 -0.997948
vn 0.064031 0.000000 -0.997948
vn 0.064031 0.000000 0.997948
vn 0.064031 0.000000 0.997948
vn 0.064031 0.000000 0.997948
vn 0.064031 0.000000 0.997948
vn 0.042588 0.999093 0.000000
vn 0.042588 0.999093 0.000000
vn 0.042588 0.999093 0.000000
vn 0.042588 0.999093 0.000000
vn 0.060638 -0.933935 -0.352262
vn 0.060638 -0.933935 -0.352262
vn 0.060638 -0.933935 -0.352262
vn 0.060638 -0.933935 -0.352262
vn -0.576552 -0.817060 0.000000
vn -0.576552 -0.817060 0.000000
vn -0.576552 -0.817060 0.000000
vn -0.576552 -0.817060 0.000000
vn -0.891420 0.000000 -0.453177
vn -0.891420 0.000000 -0.453177
vn -0.891420 0.000000 -0.453177
vn -0.891420 0.000000 -0.453177
vn 0.060638 -0.933935 0.352262
vn 0.060638 -0.933935 0.352262
vn 0.060638 -0.933935 0.352262
vn 0.060638 -0.933935 0.352262
vn -0.891420 0.000000 0.453177
vn -0.891420 0.000000 0.453177
vn -0.891420 0.000000 0.453177
vn -0.891420 0.000000 0.453177
vn 0.060638 0.933935 0.352262
vn 0.060638 0.933935 0.352262
vn 0.060638 0.933935 0.352262
vn 0.060638 0.933935 0.352262
vn -0.576552 0.817060 0.000000
vn -0.576552 0.817060 0.000000
vn -0.576552 0.817060 0.000000
vn -0.576552 0.817060 0.000000
vn 0.060638 0.933935 -0.352262
vn 0.060638 0.933935 -0.352262
vn 0.060638 0.933935 -0.352262
vn 0.060638 0.933935 -0.352262
vn 0.935801 0.000000 -0.352529
vn 0.935801 0.000000 -0.352529
vn 0.935801 0.000000 -0.352529
vn 0.935801 0.000000 -0.352529
vn 0.520267 -0.854004 0.000000
vn 0.520267 -0.854004 0.000000
vn 0.520267 -0.854004 0.000000
vn 0.520267 -0.854004 0.000000
vn 0.935801 0.000000 0.352529
vn 0.935801 0.000000 0.352529
vn 0.935801 0.000000 0.352529
vn 0.935801 0.000000 0.352529
vn 0.520267 0.854004 0.000000
vn 0.520267 0.854004 0.000000
vn 0.520267 0.854004 0.000000
vn 0.520267 0.854004 0.000000
vn -0.540456 -0.788952 -0.292338
vn -0.540456 -0.788952 -0.292338
vn -0.540456 -0.788952 -0.292338
vn -0.540457 -0.788951 0.292339
vn -0.540457 -0.788951 0.292339
vn -0.540457 -0.788951 0.292339
vn -0.540456 0.788952 0.292338
vn -0.540456 0.788952 0.292338
vn -0.540456 0.788952 0.292338
vn -0.540457 0.788951 -0.292339
vn -0.540457 0.788951 -0.292339
vn -0.540457 0.788951 -0.292339
vn 0.670231 -0.692813 -0.266084
vn 0.670231 -0.692813 -0.266084
vn 0.670231 -0.692813 -0.266084
vn 0.670230 -0.692814 0.266084
vn 0.670230 -0.692814 0.266084
vn 0.670230 -0.692814 0.266084
vn 0.670231 0.692813 0.266084
vn 0.670231 0.692813 0.266084
vn 0.670231 0.692813 0.266084
vn 0.670232 0.692812 -0.266085
vn 0.670232 0.692812 -0.266085
vn 0.670232 0.692812 -0.266085
vn 0.000000 1.000000 0.000000
vn 0.000000 1.000000 0.000000
vn 0.000000 1.000000 0.000000
vn 0.000000 1.000000 0.000000
vn 0.031925 -0.451982 0.891456
vn 0.024782 -0.113915 0.993181
vn 0.025031 -0.123845 0.991986
vn 0.024377 -0.097948 0.994893
vn 0.714763 0.000000 0.699367
vn 0.714763 0.000000 0.699367
vn 0.714763 0.000000 0.699367
vn 0.714763 0.000000 0.699367
vn 0.015395 0.707107 0.706939
vn 0.015395 0.707107 0.706939
vn 0.023292 0.706998 0.706832
vn 0.023614 0.706992 0.706827
vn 0.707106 0.707107 0.000000
vn 0.707106 0.707107 0.000000
vn 0.707106 0.707107 0.000000
vn 0.707106 0.707107 0.000000
vn 0.015395 0.707107 -0.706939
vn 0.015395 0.707107 -0.706939
vn 0.023614 0.706993 -0.706827
vn 0.023292 0.706998 -0.706832
vn 0.714763 0.000000 -0.699367
vn 0.714763 0.000000 -0.699367
vn 0.714763 0.000000 -0.699367
vn 0.714763 0.000000 -0.699367
vn 0.024782 -0.113915 -0.993181
vn 0.031925 -0.451982 -0.891455
vn 0.024377 -0.097948 -0.994893
vn 0.025031 -0.123845 -0.991986
vn 0.021772 0.000000 -0.999763
vn 0.021772 0.000000 -0.999763
vn 0.021772 0.000000 0.999763
vn 0.021772 0.000000 0.999763
vn 0.021772 0.000000 0.999763
vn 0.021772 0.000000 0.999763
vn 0.021772 0.000000 -0.999763
vn 0.021772 0.000000 -0.999763
vn 0.000000 -1.000000 0.000000
vn 0.000000 -1.000000 0.000000
vn 0.000000 -1.000000 0.000000
vn 0.000000 -1.000000 0.000000
vn 0.000000 -1.000000 0.000000
vn 0.000000 -1.000000 0.000000
vn 0.021772 0.000000 0.999763
vn 1.000000 0.000000 0.000000
vn 1.000000 0.000000 0.000000
vn 1.000000 0.000000 0.000000
vn 1.000000 0.000000 0.000000
vn 0.021772 0.000000 -0.999763
vn 0.585639 0.573297 0.573025
vn 0.585640 0.573297 0.573025
vn 0.585640 0.573297 0.573025
vn 0.585639 0.573296 -0.573025
vn 0.585639 0.573296 -0.573025
vn 0.585639 0.573296 -0.573025
vn 0.346220 0.663415 -0.663334
vn 0.346221 0.663414 0.663335
s 1
g pCube1
usemtl initialShadingGroup
f 2/138/1 47/45/2 41/47/3 3/29/4
s 2
f 4/140/5 1/46/6 22/82/7 18/91/8
f 1/139/6 2/141/9 25/72/10 22/81/7
f 2/2/9 3/137/11 28/63/12 25/71/10
f 3/3/11 4/1/5 18/92/8 28/62/12
s off
f 19/89/13 21/85/14 8/125/15 6/134/16
f 10/120/17 13/111/18 16/107/19 7/131/20
f 15/102/21 26/96/22 17/98/23 5/129/24
f 20/79/25 24/75/26 11/116/27 9/122/28
f 23/69/29 27/65/30 14/104/31 12/113/32
f 6/135/33 5/128/34 17/99/35 19/88/36
f 7/132/37 6/13/38 8/126/39 10/119/40
f 5/130/41 7/14/42 16/108/43 15/101/44
f 9/123/45 8/15/46 21/86/47 20/78/48
f 10/121/49 9/16/50 11/117/51 13/110/52
f 12/114/53 11/17/54 24/76/55 23/68/56
f 13/112/57 12/18/58 14/105/59 16/20/60
f 15/103/61 14/19/62 27/66/63 26/95/64
f 18/93/65 17/21/66 26/97/67 28/61/68
f 19/90/69 18/22/70 22/83/71 21/23/72
f 20/80/73 22/24/74 25/73/75 24/25/76
f 23/70/77 25/26/78 28/64/79 27/27/80
f 5/4/81 6/136/82 7/133/83
f 8/127/84 9/124/85 10/5/86
f 11/118/87 12/115/88 13/6/89
f 14/106/90 15/7/91 16/109/92
f 17/100/93 18/94/94 19/9/95
f 20/10/96 21/87/97 22/84/98
f 23/11/99 24/77/100 25/74/101
f 26/8/102 27/67/103 28/12/104
s 1
f 35/36/105 39/40/106 46/60/107 31/28/108
s 3
f 29/30/109 30/31/110 45/32/111 44/51/112
s off
f 30/53/113 29/54/114 33/58/115 32/33/116
s 4
f 32/33/117 31/28/118 46/60/119 48/44/120
s off
f 31/34/121 33/58/122 36/37/123 35/35/124
s 5
f 35/36/125 34/56/126 40/41/127 39/40/128
s off
f 34/59/129 36/37/130 38/38/131 37/39/132
s 6
f 37/57/133 38/52/134 43/49/135 42/55/136
s 1
f 39/40/106 41/47/3 47/45/2 46/60/107
s 6
f 41/47/137 40/41/138 42/55/136 43/49/135
s 3
f 44/42/112 45/43/111 48/44/139 47/45/140
f 1/142/141 44/42/112 47/45/140 2/138/142
s 6
f 3/29/143 41/47/137 43/49/135 4/48/144
s 7
f 4/48/145 43/49/146 44/51/147 1/50/148
f 44/51/147 43/49/146 38/52/149 29/30/150
s 3
f 30/53/110 32/33/151 48/44/139 45/43/111
s off
f 38/38/152 36/37/153 33/58/154 29/54/155
s 6
f 42/55/136 40/41/138 34/56/156 37/57/133
s off
f 31/34/157 32/33/158 33/58/159
f 34/59/160 35/35/161 36/37/162
s 5
f 39/40/128 40/41/127 41/47/163
s 4
f 46/60/119 47/45/164 48/44/120
