# This file uses centimeters as units for non-parametric coordinates.

mtllib hammerBasher.mtl
g default
v -7.893446 1.453501 -1.032461
v -7.893446 1.453501 -1.714879
v -7.660761 1.483739 -1.065755
v -7.660761 1.483739 -1.681585
v -7.575011 1.483739 -1.065755
v -7.575011 1.483739 -1.681585
v -7.139640 1.483739 -1.065755
v -7.139640 1.483739 -1.681585
v -7.055749 1.483739 -1.065755
v -7.055749 1.483739 -1.681585
v -6.813774 1.453501 -1.032461
v -6.813774 1.453501 -1.714879
v -6.813774 1.959119 -1.032461
v -6.813774 1.959119 -1.714879
v -7.055749 1.928881 -1.065755
v -7.055749 1.928881 -1.681585
v -7.139640 1.928881 -1.065755
v -7.139640 1.928881 -1.681585
v -7.575011 1.928881 -1.065755
v -7.575011 1.928881 -1.681585
v -7.660761 1.928881 -1.065755
v -7.660761 1.928881 -1.681585
v -7.893446 1.959119 -1.032461
v -7.893446 1.959119 -1.714879
v -7.660761 1.514017 -1.096034
v -7.660761 1.514017 -1.651306
v -7.575011 1.514017 -1.651306
v -7.575011 1.514017 -1.096034
v -7.575011 1.898603 -1.096034
v -7.575011 1.898603 -1.651306
v -7.660761 1.898603 -1.651306
v -7.660761 1.898603 -1.096034
v -7.139640 1.514017 -1.096034
v -7.139640 1.514017 -1.651306
v -7.055749 1.514017 -1.651306
v -7.055749 1.514017 -1.096034
v -7.055749 1.898603 -1.096034
v -7.055749 1.898603 -1.651306
v -7.139640 1.898603 -1.651306
v -7.139640 1.898603 -1.096034
v -7.739336 1.927649 -1.570273
v -7.787749 1.927649 -1.521859
v -7.739336 1.927649 -1.473446
v -7.690922 1.927649 -1.521859
v -7.739336 1.976062 -1.521859
v -7.739336 1.927649 -1.237872
v -7.787749 1.927649 -1.189458
v -7.739336 1.927649 -1.141045
v -7.690922 1.927649 -1.189458
v -7.739336 1.976062 -1.189458
v -6.978745 1.927649 -1.237872
v -7.027158 1.927649 -1.189458
v -6.978745 1.927649 -1.141045
v -6.930332 1.927649 -1.189458
v -6.978745 1.976062 -1.189458
v -6.978745 1.927649 -1.570273
v -7.027158 1.927649 -1.521859
v -6.978745 1.927649 -1.473446
v -6.930332 1.927649 -1.521859
v -6.978745 1.976062 -1.521859
v -6.978745 1.487635 -1.473446
v -7.027158 1.487635 -1.521859
v -6.978745 1.487635 -1.570273
v -6.930332 1.487635 -1.521859
v -6.978745 1.439222 -1.521859
v -6.978745 1.487635 -1.141917
v -7.027158 1.487635 -1.190330
v -6.978745 1.487635 -1.238743
v -6.930332 1.487635 -1.190330
v -6.978745 1.439222 -1.190330
v -7.738558 1.487635 -1.141917
v -7.786971 1.487635 -1.190330
v -7.738558 1.487635 -1.238743
v -7.690145 1.487635 -1.190330
v -7.738558 1.439222 -1.190330
v -7.738558 1.487635 -1.472937
v -7.786971 1.487635 -1.521351
v -7.738558 1.487635 -1.569764
v -7.690145 1.487635 -1.521351
v -7.738558 1.439222 -1.521351
v -7.501552 1.589412 -1.740982
v -7.224688 1.589412 -1.740982
v -7.444566 1.659073 -0.131385
v -7.281674 1.659073 -0.131385
v -7.444566 1.777865 -0.131385
v -7.281674 1.777865 -0.131385
v -7.501552 1.847527 -1.740982
v -7.224688 1.847527 -1.740982
v -7.259838 1.633528 -1.002596
v -7.466402 1.633528 -1.002596
v -7.466402 1.803410 -1.002596
v -7.259838 1.803410 -1.002596
v -7.469310 1.817468 -1.029845
v -7.469310 1.619470 -1.029845
v -7.256930 1.619470 -1.029845
v -7.256930 1.817468 -1.029845
v -7.432450 1.648106 -1.030059
v -7.293790 1.648106 -1.030059
v -7.294759 1.649111 -1.002811
v -7.431481 1.649111 -1.002811
v -7.431481 1.787828 -1.002811
v -7.294759 1.787828 -1.002811
v -7.293790 1.788833 -1.030059
v -7.432450 1.788833 -1.030059
v -7.391471 1.803410 -1.002596
v -7.385515 1.777865 -0.131385
v -7.345609 1.803410 -1.002596
v -7.346246 1.777865 -0.131385
v -7.376246 1.793679 -0.987476
v -7.374704 1.769395 -0.146795
v -7.361508 1.769395 -0.146795
v -7.360834 1.793679 -0.987476
v -7.387188 1.659073 -0.131385
v -7.391813 1.633528 -1.002596
v -7.353273 1.659073 -0.131385
v -7.343027 1.633528 -1.002596
v -7.374659 1.672254 -0.146846
v -7.376141 1.648582 -0.987434
v -7.360856 1.648582 -0.987503
v -7.361606 1.672254 -0.146798
vt 0.237915 0.205068
vt 0.271159 0.205068
vt 0.237915 0.207948
vt 0.271159 0.207948
vt 0.237915 0.210828
vt 0.271159 0.210828
vt 0.237915 0.213708
vt 0.271159 0.213708
vt 0.237915 0.216588
vt 0.271159 0.216588
vt 0.237915 0.219468
vt 0.271159 0.219468
vt 0.237915 0.233868
vt 0.271159 0.233868
vt 0.237915 0.236748
vt 0.271159 0.236748
vt 0.237915 0.239628
vt 0.271159 0.239628
vt 0.237915 0.242508
vt 0.271159 0.242508
vt 0.237915 0.245388
vt 0.271159 0.245388
vt 0.237915 0.248268
vt 0.271159 0.248268
vt 0.237915 0.262668
vt 0.271159 0.262668
vt 0.354515 0.113868
vt 0.304404 0.207948
vt 0.304404 0.210828
vt 0.304404 0.213708
vt 0.304404 0.216588
vt 0.354515 0.173868
vt 0.134515 0.113868
vt 0.134515 0.125868
vt 0.134515 0.137868
vt 0.134515 0.149868
vt 0.134515 0.161868
vt 0.134515 0.173868
vt 0.705840 0.274466
vt 0.739084 0.274466
vt 0.739084 0.277346
vt 0.705840 0.277346
vt 0.705840 0.280226
vt 0.739084 0.280226
vt 0.739084 0.283106
vt 0.705840 0.283106
vt 0.705840 0.303266
vt 0.739084 0.303266
vt 0.739084 0.306146
vt 0.705840 0.306146
vt 0.705840 0.309026
vt 0.739084 0.309026
vt 0.739084 0.311906
vt 0.705840 0.311906
vt 0.772328 0.274466
vt 0.772328 0.277346
vt 0.772328 0.280226
vt 0.772328 0.283106
vt 0.602440 0.192386
vt 0.602440 0.204386
vt 0.602440 0.216386
vt 0.602440 0.228386
vt 0.254537 0.205068
vt 0.287781 0.219468
vt 0.254537 0.233868
vt 0.221292 0.219468
vt 0.613419 0.554956
vt 0.630041 0.554956
vt 0.646663 0.583756
vt 0.646663 0.554956
vt 0.663285 0.554956
vt 0.679908 0.554956
vt 0.254537 0.205068
vt 0.287781 0.219468
vt 0.254537 0.233868
vt 0.221292 0.219468
vt 0.584763 0.669254
vt 0.601385 0.669254
vt 0.618007 0.698054
vt 0.618007 0.669254
vt 0.634629 0.669254
vt 0.651252 0.669254
vt 0.254537 0.205068
vt 0.287781 0.219468
vt 0.254537 0.233868
vt 0.221292 0.219468
vt 0.613419 0.554956
vt 0.630041 0.554956
vt 0.646663 0.583756
vt 0.646663 0.554956
vt 0.663285 0.554956
vt 0.679908 0.554956
vt 0.254537 0.205068
vt 0.287781 0.219468
vt 0.254537 0.233868
vt 0.221292 0.219468
vt 0.613419 0.554956
vt 0.630041 0.554956
vt 0.646663 0.583756
vt 0.646663 0.554956
vt 0.663285 0.554956
vt 0.679908 0.554956
vt 0.254537 0.205068
vt 0.287781 0.219468
vt 0.254537 0.233868
vt 0.221292 0.219468
vt 0.613419 0.554956
vt 0.630041 0.554956
vt 0.646663 0.583756
vt 0.646663 0.554956
vt 0.663285 0.554956
vt 0.679908 0.554956
vt 0.254537 0.205068
vt 0.287781 0.219468
vt 0.254537 0.233868
vt 0.221292 0.219468
vt 0.613419 0.554956
vt 0.630041 0.554956
vt 0.646663 0.583756
vt 0.646663 0.554956
vt 0.663285 0.554956
vt 0.679908 0.554956
vt 0.254537 0.205068
vt 0.287781 0.219468
vt 0.254537 0.233868
vt 0.221292 0.219468
vt 0.613419 0.554956
vt 0.630041 0.554956
vt 0.646663 0.583756
vt 0.646663 0.554956
vt 0.663285 0.554956
vt 0.679908 0.554956
vt 0.254537 0.205068
vt 0.287781 0.219468
vt 0.254537 0.233868
vt 0.221292 0.219468
vt 0.613419 0.554956
vt 0.630041 0.554956
vt 0.646663 0.583756
vt 0.646663 0.554956
vt 0.663285 0.554956
vt 0.679908 0.554956
vt 0.833771 0.600134
vt 0.907104 0.600134
vt 0.907104 0.600987
vt 0.833771 0.600987
vt 0.833771 0.620339
vt 0.847505 0.620339
vt 0.889081 0.620339
vt 0.907104 0.620339
vt 0.907104 0.660338
vt 0.894101 0.660338
vt 0.848975 0.660338
vt 0.833771 0.660338
vt 0.833771 0.679690
vt 0.907104 0.679690
vt 0.907104 0.680543
vt 0.833771 0.680543
vt 0.833771 0.700339
vt 0.907104 0.700339
vt 0.907104 0.740338
vt 0.833771 0.740338
vt 0.980437 0.600134
vt 0.980437 0.600987
vt 0.760437 0.600134
vt 0.760437 0.600987
vt 0.894457 0.600987
vt 0.907104 0.600987
vt 0.760437 0.600987
vt 0.833771 0.600987
vt 0.760437 0.620339
vt 0.889293 0.679690
vt 0.907104 0.679690
vt 0.980437 0.600987
vt 0.980437 0.620339
vt 0.760437 0.580338
vt 0.833771 0.580338
vt 0.833771 0.600134
vt 0.760437 0.600134
vt 0.907104 0.580338
vt 0.907104 0.600134
vt 0.980437 0.580338
vt 0.980437 0.600134
vt 0.833771 0.680543
vt 0.907104 0.680543
vt 0.847296 0.600987
vt 0.833771 0.679690
vt 0.847733 0.679690
vt 0.847733 0.679690
vt 0.848975 0.660338
vt 0.894101 0.660338
vt 0.889293 0.679690
vt 0.847505 0.620339
vt 0.847296 0.600987
vt 0.894457 0.600987
vt 0.889081 0.620339
vn 0.128866 -0.991662 0.000000
vn 0.128866 -0.991662 0.000000
vn 0.128866 -0.991662 0.000000
vn 0.128866 -0.991662 0.000000
vn 0.000000 -1.000000 0.000000
vn 0.000000 -1.000000 0.000000
vn 0.000000 -1.000000 0.000000
vn 0.000000 -1.000000 0.000000
vn 0.000000 -1.000000 0.000000
vn 0.000000 -1.000000 0.000000
vn 0.000000 -1.000000 0.000000
vn 0.000000 -1.000000 0.000000
vn 0.000000 -1.000000 0.000000
vn 0.000000 -1.000000 0.000000
vn 0.000000 -1.000000 0.000000
vn 0.000000 -1.000000 0.000000
vn -0.123996 -0.992283 0.000000
vn -0.123996 -0.992283 0.000000
vn -0.123996 -0.992283 0.000000
vn -0.123996 -0.992283 0.000000
vn 1.000000 0.000000 0.000000
vn 1.000000 0.000000 0.000000
vn 1.000000 0.000000 0.000000
vn 1.000000 0.000000 0.000000
vn -0.123996 0.992283 0.000000
vn -0.123996 0.992283 0.000000
vn -0.123996 0.992283 0.000000
vn -0.123996 0.992283 0.000000
vn 0.000000 1.000000 0.000000
vn 0.000000 1.000000 0.000000
vn 0.000000 1.000000 0.000000
vn 0.000000 1.000000 0.000000
vn 0.000000 1.000000 0.000000
vn 0.000000 1.000000 0.000000
vn 0.000000 1.000000 0.000000
vn 0.000000 1.000000 0.000000
vn 0.000000 1.000000 0.000000
vn 0.000000 1.000000 0.000000
vn 0.000000 1.000000 0.000000
vn 0.000000 1.000000 0.000000
vn 0.128866 0.991662 0.000000
vn 0.128866 0.991662 0.000000
vn 0.128866 0.991662 0.000000
vn 0.128866 0.991662 0.000000
vn -1.000000 0.000000 0.000000
vn -1.000000 0.000000 0.000000
vn -1.000000 0.000000 0.000000
vn -1.000000 0.000000 0.000000
vn 0.141645 0.000000 -0.989917
vn 0.141645 0.000000 -0.989917
vn 0.141645 0.000000 -0.989917
vn 0.141645 0.000000 -0.989917
vn 0.000000 0.000000 -1.000000
vn 0.000000 0.000000 -1.000000
vn 0.000000 0.000000 -1.000000
vn 0.000000 0.000000 -1.000000
vn 0.000000 0.000000 -1.000000
vn 0.000000 0.000000 -1.000000
vn 0.000000 0.000000 -1.000000
vn 0.000000 0.000000 -1.000000
vn 0.000000 0.000000 -1.000000
vn 0.000000 0.000000 -1.000000
vn 0.000000 0.000000 -1.000000
vn 0.000000 0.000000 -1.000000
vn -0.136310 0.000000 -0.990666
vn -0.136310 0.000000 -0.990666
vn -0.136310 0.000000 -0.990666
vn -0.136310 0.000000 -0.990666
vn 0.141645 0.000000 0.989917
vn 0.141645 0.000000 0.989917
vn 0.141645 0.000000 0.989917
vn 0.141645 0.000000 0.989917
vn 0.000000 0.000000 1.000000
vn 0.000000 0.000000 1.000000
vn 0.000000 0.000000 1.000000
vn 0.000000 0.000000 1.000000
vn 0.000000 0.000000 1.000000
vn 0.000000 0.000000 1.000000
vn 0.000000 0.000000 1.000000
vn 0.000000 0.000000 1.000000
vn 0.000000 0.000000 1.000000
vn 0.000000 0.000000 1.000000
vn 0.000000 0.000000 1.000000
vn 0.000000 0.000000 1.000000
vn -0.136310 0.000000 0.990666
vn -0.136310 0.000000 0.990666
vn -0.136310 0.000000 0.990666
vn -0.136310 0.000000 0.990666
vn 1.000000 -0.000000 0.000000
vn 1.000000 -0.000000 0.000000
vn 1.000000 -0.000000 0.000000
vn 1.000000 -0.000000 0.000000
vn -1.000000 0.000003 0.000000
vn -1.000000 0.000003 0.000000
vn -1.000000 0.000003 0.000000
vn -1.000000 0.000003 0.000000
vn -1.000000 -0.000003 0.000000
vn -1.000000 -0.000003 0.000000
vn -1.000000 -0.000003 0.000000
vn -1.000000 -0.000003 0.000000
vn 1.000000 0.000000 0.000000
vn 1.000000 0.000000 0.000000
vn 1.000000 0.000000 0.000000
vn 1.000000 0.000000 0.000000
vn 1.000000 0.000005 0.000000
vn 1.000000 0.000005 0.000000
vn 1.000000 0.000005 0.000000
vn 1.000000 0.000005 0.000000
vn -1.000000 0.000001 0.000000
vn -1.000000 0.000001 0.000000
vn -1.000000 0.000001 0.000000
vn -1.000000 0.000001 0.000000
vn -1.000000 -0.000001 0.000000
vn -1.000000 -0.000001 0.000000
vn -1.000000 -0.000001 0.000000
vn -1.000000 -0.000001 0.000000
vn 1.000000 -0.000005 0.000000
vn 1.000000 -0.000005 0.000000
vn 1.000000 -0.000005 0.000000
vn 1.000000 -0.000005 0.000000
vn 0.000000 -1.000000 0.000000
vn 0.000000 -1.000000 0.000000
vn 0.000000 -1.000000 0.000000
vn 0.000000 -1.000000 0.000000
vn -0.577353 0.577345 -0.577353
vn -0.577353 0.577345 -0.577353
vn -0.577353 0.577345 -0.577353
vn -0.577351 0.577346 0.577354
vn -0.577351 0.577346 0.577354
vn -0.577351 0.577346 0.577354
vn 0.577348 0.577353 0.577350
vn 0.577348 0.577353 0.577350
vn 0.577348 0.577353 0.577350
vn 0.577349 0.577352 -0.577349
vn 0.577349 0.577352 -0.577349
vn 0.577349 0.577352 -0.577349
vn 0.000000 -1.000000 0.000000
vn 0.000000 -1.000000 0.000000
vn 0.000000 -1.000000 0.000000
vn 0.000000 -1.000000 0.000000
vn -0.577353 0.577345 -0.577353
vn -0.577353 0.577345 -0.577353
vn -0.577353 0.577345 -0.577353
vn -0.577353 0.577345 0.577353
vn -0.577353 0.577345 0.577353
vn -0.577353 0.577345 0.577353
vn 0.577349 0.577352 0.577349
vn 0.577349 0.577352 0.577349
vn 0.577349 0.577352 0.577349
vn 0.577349 0.577352 -0.577349
vn 0.577349 0.577352 -0.577349
vn 0.577349 0.577352 -0.577349
vn 0.000000 -1.000000 0.000000
vn 0.000000 -1.000000 0.000000
vn 0.000000 -1.000000 0.000000
vn 0.000000 -1.000000 0.000000
vn -0.577349 0.577352 -0.577349
vn -0.577349 0.577352 -0.577349
vn -0.577349 0.577352 -0.577349
vn -0.577349 0.577352 0.577349
vn -0.577349 0.577352 0.577349
vn -0.577349 0.577352 0.577349
vn 0.577349 0.577352 0.577349
vn 0.577349 0.577352 0.577349
vn 0.577349 0.577352 0.577349
vn 0.577349 0.577352 -0.577349
vn 0.577349 0.577352 -0.577349
vn 0.577349 0.577352 -0.577349
vn 0.000000 -1.000000 0.000000
vn 0.000000 -1.000000 0.000000
vn 0.000000 -1.000000 0.000000
vn 0.000000 -1.000000 0.000000
vn -0.577349 0.577352 -0.577349
vn -0.577349 0.577352 -0.577349
vn -0.577349 0.577352 -0.577349
vn -0.577348 0.577353 0.577350
vn -0.577348 0.577353 0.577350
vn -0.577348 0.577353 0.577350
vn 0.577348 0.577353 0.577350
vn 0.577348 0.577353 0.577350
vn 0.577348 0.577353 0.577350
vn 0.577349 0.577352 -0.577349
vn 0.577349 0.577352 -0.577349
vn 0.577349 0.577352 -0.577349
vn 0.000000 1.000000 0.000000
vn 0.000000 1.000000 0.000000
vn 0.000000 1.000000 0.000000
vn 0.000000 1.000000 0.000000
vn -0.577348 -0.577353 0.577350
vn -0.577348 -0.577353 0.577350
vn -0.577348 -0.577353 0.577350
vn -0.577349 -0.577352 -0.577349
vn -0.577349 -0.577352 -0.577349
vn -0.577349 -0.577352 -0.577349
vn 0.577349 -0.577352 -0.577349
vn 0.577349 -0.577352 -0.577349
vn 0.577349 -0.577352 -0.577349
vn 0.577348 -0.577353 0.577350
vn 0.577348 -0.577353 0.577350
vn 0.577348 -0.577353 0.577350
vn 0.000000 1.000000 0.000000
vn 0.000000 1.000000 0.000000
vn 0.000000 1.000000 0.000000
vn 0.000000 1.000000 0.000000
vn -0.577349 -0.577352 0.577349
vn -0.577349 -0.577352 0.577349
vn -0.577349 -0.577352 0.577349
vn -0.577349 -0.577352 -0.577349
vn -0.577349 -0.577352 -0.577349
vn -0.577349 -0.577352 -0.577349
vn 0.577349 -0.577352 -0.577349
vn 0.577349 -0.577352 -0.577349
vn 0.577349 -0.577352 -0.577349
vn 0.577349 -0.577352 0.577349
vn 0.577349 -0.577352 0.577349
vn 0.577349 -0.577352 0.577349
vn 0.000000 1.000000 0.000000
vn 0.000000 1.000000 0.000000
vn 0.000000 1.000000 0.000000
vn 0.000000 1.000000 0.000000
vn -0.577353 -0.577345 0.577353
vn -0.577353 -0.577345 0.577353
vn -0.577353 -0.577345 0.577353
vn -0.577353 -0.577345 -0.577353
vn -0.577353 -0.577345 -0.577353
vn -0.577353 -0.577345 -0.577353
vn 0.577349 -0.577352 -0.577349
vn 0.577349 -0.577352 -0.577349
vn 0.577349 -0.577352 -0.577349
vn 0.577349 -0.577352 0.577349
vn 0.577349 -0.577352 0.577349
vn 0.577349 -0.577352 0.577349
vn 0.000000 1.000000 0.000000
vn 0.000000 1.000000 0.000000
vn 0.000000 1.000000 0.000000
vn 0.000000 1.000000 0.000000
vn -0.577353 -0.577345 0.577353
vn -0.577353 -0.577345 0.577353
vn -0.577353 -0.577345 0.577353
vn -0.577353 -0.577345 -0.577353
vn -0.577353 -0.577345 -0.577353
vn -0.577353 -0.577345 -0.577353
vn 0.577349 -0.577352 -0.577349
vn 0.577349 -0.577352 -0.577349
vn 0.577349 -0.577352 -0.577349
vn 0.577349 -0.577352 0.577349
vn 0.577349 -0.577352 0.577349
vn 0.577349 -0.577352 0.577349
vn 0.000000 -0.999321 0.036842
vn 0.000000 -0.999321 0.036842
vn 0.000000 -0.999321 0.036842
vn 0.000000 -0.999321 0.036842
vn 0.000000 0.000000 1.000000
vn 0.000000 0.000000 1.000000
vn 0.000000 0.000000 1.000000
vn 0.000000 0.000000 1.000000
vn 0.000000 0.000000 1.000000
vn 0.000000 0.000000 1.000000
vn 0.000000 0.000000 1.000000
vn 0.000000 0.000000 1.000000
vn 0.000000 0.999321 0.036842
vn 0.000000 0.999321 0.036842
vn 0.000000 0.999321 0.036842
vn 0.000000 0.999321 0.036842
vn 0.000000 0.000000 -1.000000
vn 0.000000 0.000000 -1.000000
vn 0.000000 0.000000 -1.000000
vn 0.000000 0.000000 -1.000000
vn 0.999368 0.000000 0.035544
vn 0.999368 0.000000 0.035544
vn 0.999368 0.000000 0.035544
vn 0.999368 0.000000 0.035544
vn -0.999368 0.000000 0.035544
vn -0.999368 0.000000 0.035544
vn -0.999368 0.000000 0.035544
vn -0.999368 0.000000 0.035544
vn 0.000000 -0.999570 0.029309
vn 0.000000 -0.999570 0.029309
vn 0.000000 -0.999570 0.029309
vn 0.000000 -0.999570 0.029309
vn -0.999686 0.000000 0.025056
vn -0.999686 0.000000 0.025056
vn -0.999686 0.000000 0.025056
vn -0.999686 0.000000 0.025056
vn 0.000000 0.999570 0.029309
vn 0.000000 0.999570 0.029309
vn 0.000000 0.999570 0.029309
vn 0.000000 0.999570 0.029309
vn 0.999686 0.000000 0.025056
vn 0.999686 0.000000 0.025056
vn 0.999686 0.000000 0.025056
vn 0.999686 0.000000 0.025056
vn -0.998974 0.000000 0.045292
vn -0.998974 0.000000 0.045292
vn -0.998974 0.000000 0.045292
vn -0.998974 0.000000 0.045292
vn 0.000000 -0.999108 0.042231
vn 0.000000 -0.999108 0.042231
vn 0.000000 -0.999108 0.042231
vn 0.000000 -0.999108 0.042231
vn 0.998974 0.000000 0.045292
vn 0.998974 0.000000 0.045292
vn 0.998974 0.000000 0.045292
vn 0.998974 0.000000 0.045292
vn 0.000000 0.999108 0.042231
vn 0.000000 0.999108 0.042231
vn 0.000000 0.999108 0.042231
vn 0.000000 0.999108 0.042231
vn 0.003674 0.002762 0.999989
vn -0.003675 0.002762 0.999989
vn -0.003071 0.003538 0.999989
vn 0.003071 0.003538 0.999989
vn 0.005199 -0.002108 -0.999984
vn 0.000000 -0.013756 -0.999905
vn 0.000000 -0.013756 -0.999905
vn -0.005198 -0.002108 -0.999984
vn -0.003657 -0.005562 -0.999978
vn 0.003657 -0.005562 -0.999978
vn -0.005198 0.002109 -0.999984
vn 0.000000 0.013759 -0.999905
vn 0.000000 0.013759 -0.999905
vn 0.005199 0.002109 -0.999984
vn 0.003657 0.005563 -0.999978
vn -0.003657 0.005563 -0.999978
vn -0.003675 -0.002762 0.999989
vn 0.003674 -0.002762 0.999989
vn 0.003071 -0.003538 0.999989
vn -0.003071 -0.003538 0.999989
vn 0.000000 0.999570 0.029309
vn 0.000000 0.999570 0.029309
vn 0.000000 0.999570 0.029309
vn 0.000000 0.999570 0.029309
vn 0.000000 0.998121 0.061270
vn 0.000000 0.999993 0.003781
vn 0.000000 0.999998 0.001919
vn 0.000000 0.998122 0.061250
vn 0.573004 0.819275 0.021338
vn 0.573004 0.819275 0.021338
vn 0.573004 0.819275 0.021338
vn 0.573004 0.819275 0.021338
vn 0.000000 0.876338 -0.481697
vn 0.000000 0.876338 -0.481697
vn -0.512659 0.858240 0.024589
vn -0.512659 0.858240 0.024589
vn -0.512659 0.858240 0.024589
vn -0.512659 0.858240 0.024589
vn 0.000000 0.840872 0.541233
vn 0.000000 0.840872 0.541233
vn -0.000000 -0.999570 0.029309
vn -0.000000 -0.999570 0.029309
vn -0.000000 -0.999570 0.029309
vn -0.000000 -0.999570 0.029309
vn 0.000054 -0.999979 -0.006534
vn 0.000077 -0.996798 0.079958
vn 0.000079 -0.996651 0.081770
vn 0.000052 -0.999991 -0.004220
vn 0.707497 -0.706492 0.017789
vn 0.707497 -0.706492 0.017789
vn 0.707497 -0.706492 0.017789
vn 0.707497 -0.706492 0.017789
vn 0.000761 -0.708825 0.705384
vn 0.000761 -0.708825 0.705384
vn -0.733524 -0.679501 0.014824
vn -0.733524 -0.679501 0.014824
vn -0.733525 -0.679501 0.014824
vn -0.733524 -0.679501 0.014824
vn 0.000665 -0.760544 -0.649286
vn 0.000665 -0.760544 -0.649286
s off
g pCube4
usemtl initialShadingGroup
f 1/1/1 2/2/2 4/4/3 3/3/4
f 25/39/5 26/40/6 27/41/7 28/42/8
f 5/5/9 6/6/10 8/8/11 7/7/12
f 33/43/13 34/44/14 35/45/15 36/46/16
f 9/9/17 10/10/18 12/12/19 11/11/20
f 11/11/21 12/12/22 14/14/23 13/13/24
f 13/13/25 14/14/26 16/16/27 15/15/28
f 37/47/29 38/48/30 39/49/31 40/50/32
f 17/17/33 18/18/34 20/20/35 19/19/36
f 29/51/37 30/52/38 31/53/39 32/54/40
f 21/21/41 22/22/42 24/24/43 23/23/44
f 23/23/45 24/24/46 2/26/47 1/25/48
f 2/2/49 24/27/50 22/28/51 4/4/52
f 26/40/53 31/55/54 30/56/55 27/41/56
f 6/6/57 20/29/58 18/30/59 8/8/60
f 34/44/61 39/57/62 38/58/63 35/45/64
f 10/10/65 16/31/66 14/32/67 12/12/68
f 23/33/69 1/1/70 3/3/71 21/34/72
f 32/59/73 25/39/74 28/42/75 29/60/76
f 19/35/77 5/5/78 7/7/79 17/36/80
f 40/61/81 33/43/82 36/46/83 37/62/84
f 15/37/85 9/9/86 11/11/87 13/38/88
s 1
f 3/3/89 4/4/90 26/40/91 25/39/92
s 2
f 6/6/93 5/5/94 28/42/95 27/41/96
f 19/7/97 20/8/98 30/44/99 29/43/100
s 1
f 22/10/101 21/9/102 32/46/103 31/45/104
f 4/15/90 22/16/101 31/48/104 26/47/91
s 2
f 20/18/98 6/17/93 27/50/96 30/49/99
s 1
f 21/19/102 3/20/89 25/52/92 32/51/103
s 2
f 5/22/94 19/21/97 29/54/100 28/53/95
s 3
f 7/4/105 8/28/106 34/55/107 33/40/108
s 4
f 10/29/109 9/6/110 36/41/111 35/56/112
f 15/8/113 16/30/114 38/57/115 37/44/116
s 3
f 18/31/117 17/10/118 40/45/119 39/58/120
f 8/34/106 18/3/117 39/39/120 34/59/107
s 4
f 16/5/114 10/35/109 35/60/112 38/42/115
s 3
f 17/36/118 7/7/105 33/43/108 40/61/119
s 4
f 9/9/110 15/37/113 37/62/116 36/46/111
s off
f 41/63/121 44/64/122 43/65/123 42/66/124
f 41/67/125 42/68/126 45/69/127
f 42/68/128 43/70/129 45/69/130
f 43/70/131 44/71/132 45/69/133
f 44/71/134 41/72/135 45/69/136
f 46/73/137 49/74/138 48/75/139 47/76/140
f 46/77/141 47/78/142 50/79/143
f 47/78/144 48/80/145 50/79/146
f 48/80/147 49/81/148 50/79/149
f 49/81/150 46/82/151 50/79/152
f 51/83/153 54/84/154 53/85/155 52/86/156
f 51/87/157 52/88/158 55/89/159
f 52/88/160 53/90/161 55/89/162
f 53/90/163 54/91/164 55/89/165
f 54/91/166 51/92/167 55/89/168
f 56/93/169 59/94/170 58/95/171 57/96/172
f 56/97/173 57/98/174 60/99/175
f 57/98/176 58/100/177 60/99/178
f 58/100/179 59/101/180 60/99/181
f 59/101/182 56/102/183 60/99/184
f 61/103/185 64/104/186 63/105/187 62/106/188
f 61/107/189 62/108/190 65/109/191
f 62/108/192 63/110/193 65/109/194
f 63/110/195 64/111/196 65/109/197
f 64/111/198 61/112/199 65/109/200
f 66/113/201 69/114/202 68/115/203 67/116/204
f 66/117/205 67/118/206 70/119/207
f 67/118/208 68/120/209 70/119/210
f 68/120/211 69/121/212 70/119/213
f 69/121/214 66/122/215 70/119/216
f 71/123/217 74/124/218 73/125/219 72/126/220
f 71/127/221 72/128/222 75/129/223
f 72/128/224 73/130/225 75/129/226
f 73/130/227 74/131/228 75/129/229
f 74/131/230 71/132/231 75/129/232
f 76/133/233 79/134/234 78/135/235 77/136/236
f 76/137/237 77/138/238 80/139/239
f 77/138/240 78/140/241 80/139/242
f 78/140/243 79/141/244 80/139/245
f 79/141/246 76/142/247 80/139/248
f 97/143/249 98/144/250 99/145/251 100/146/252
f 83/147/253 113/148/254 115/149/255 84/150/256 86/151/257 108/152/258 106/153/259 85/154/260
f 101/155/261 102/156/262 103/157/263 104/158/264
f 87/159/265 88/160/266 82/161/267 81/162/268
f 98/144/269 103/163/270 102/164/271 99/145/272
f 104/165/273 97/143/274 100/146/275 101/166/276
f 115/149/277 116/167/278 89/168/279 84/150/280
f 91/169/281 90/170/282 83/147/283 85/171/284
f 107/172/285 108/152/286 86/151/287 92/173/288
f 89/168/289 92/174/290 86/175/291 84/150/292
f 87/176/293 81/177/294 94/178/295 93/179/296
f 81/177/297 82/180/298 95/181/299 94/178/300
f 82/180/301 88/182/302 96/183/303 95/181/304
f 93/184/305 96/185/306 88/160/307 87/159/308
s 5
f 94/178/309 95/181/310 98/144/311 97/143/312
s 6
f 89/168/313 116/167/314 114/186/315 90/170/316 100/146/317 99/145/318
f 91/187/319 105/188/320 107/172/321 92/173/322 102/156/323 101/155/324
s 5
f 96/185/325 93/184/326 104/158/327 103/157/328
f 95/181/310 96/183/325 103/163/328 98/144/311
s 6
f 92/174/322 89/168/313 99/145/318 102/164/323
s 5
f 93/179/326 94/178/309 97/143/312 104/165/327
s 6
f 90/170/316 91/169/319 101/166/324 100/146/317
s off
f 85/154/329 106/153/330 105/188/331 91/187/332
s 7
f 109/189/333 110/190/334 111/191/335 112/192/336
s off
f 105/188/337 106/153/338 110/190/339 109/189/340
s 7
f 106/153/341 108/152/342 111/191/335 110/190/334
s off
f 108/152/343 107/172/344 112/192/345 111/191/346
s 7
f 107/172/347 105/188/348 109/189/333 112/192/336
s off
f 90/170/349 114/186/350 113/148/351 83/147/352
s 8
f 117/193/353 118/194/354 119/195/355 120/196/356
s off
f 113/148/357 114/186/358 118/194/359 117/193/360
s 8
f 114/186/361 116/167/362 119/195/355 118/194/354
s off
f 116/167/363 115/149/364 120/196/365 119/195/366
s 8
f 115/149/367 113/148/368 117/193/353 120/196/356
