# This file uses centimeters as units for non-parametric coordinates.

mtllib projectile3.mtl
g default
v -3.015512 0.327883 3.944998
v -2.849112 0.299739 4.050120
v -2.580313 0.368672 3.987529
v -2.350372 0.355083 3.987529
v -3.015512 0.429812 3.918048
v -2.873463 0.442837 3.977302
v -2.665980 0.467528 3.909229
v -2.419646 0.485688 4.021965
v -3.011615 0.510378 3.918696
v -2.870559 0.527463 3.873149
v -2.641205 0.590925 3.872567
v -2.394870 0.609085 3.985303
v -2.979921 0.523307 3.792118
v -2.847205 0.552873 3.790979
v -2.511939 0.625702 3.792030
v -2.406201 0.559849 3.842649
v -3.050932 0.588709 3.533191
v -2.853872 0.590265 3.512409
v -2.580313 0.570810 3.653128
v -2.458106 0.570810 3.653128
v -3.018013 0.412688 3.542932
v -2.807681 0.337173 3.441665
v -2.561664 0.451331 3.614102
v -2.389776 0.490903 3.587471
v -2.989624 0.327883 3.691145
v -2.840958 0.264346 3.724235
v -2.580313 0.281490 3.704050
v -2.350372 0.374354 3.655414
v -2.989624 0.327883 3.818072
v -2.840958 0.274662 3.789116
v -2.580313 0.284975 3.782186
v -2.350372 0.304785 3.779413
v -2.275629 0.410784 3.834114
v -3.088130 0.434843 3.760479
vt 0.375000 0.000000
vt 0.458333 0.000000
vt 0.541667 0.000000
vt 0.625000 0.000000
vt 0.375000 0.125000
vt 0.458333 0.125000
vt 0.541667 0.125000
vt 0.625000 0.125000
vt 0.375000 0.250000
vt 0.458333 0.250000
vt 0.541667 0.250000
vt 0.625000 0.250000
vt 0.375000 0.375000
vt 0.458333 0.375000
vt 0.541667 0.375000
vt 0.625000 0.375000
vt 0.375000 0.500000
vt 0.458333 0.500000
vt 0.541667 0.500000
vt 0.625000 0.500000
vt 0.375000 0.625000
vt 0.458333 0.625000
vt 0.541667 0.625000
vt 0.625000 0.625000
vt 0.375000 0.750000
vt 0.458333 0.750000
vt 0.541667 0.750000
vt 0.625000 0.750000
vt 0.375000 0.875000
vt 0.458333 0.875000
vt 0.541667 0.875000
vt 0.625000 0.875000
vt 0.375000 1.000000
vt 0.458333 1.000000
vt 0.541667 1.000000
vt 0.625000 1.000000
vt 0.875000 0.000000
vt 0.750000 0.000000
vt 0.875000 0.125000
vt 0.750000 0.125000
vt 0.875000 0.250000
vt 0.750000 0.250000
vt 0.125000 0.000000
vt 0.250000 0.000000
vt 0.125000 0.125000
vt 0.250000 0.125000
vt 0.125000 0.250000
vt 0.250000 0.250000
vn -0.436836 0.301647 0.847457
vn -0.058999 0.502530 0.862544
vn -0.074014 0.506299 0.859176
vn -0.315336 0.395958 0.862427
vn -0.055623 0.323200 0.944695
vn -0.114798 0.448322 0.886470
vn -0.230509 0.030276 0.972599
vn -0.335823 0.200016 0.920444
vn -0.009676 0.553056 0.833088
vn -0.097258 0.531311 0.841576
vn -0.269187 0.424652 0.864412
vn -0.412447 0.334559 0.847324
vn -0.142647 0.979494 0.142279
vn -0.188109 0.972077 0.140290
vn -0.114272 0.989392 0.089694
vn -0.094569 0.978224 0.184755
vn -0.092714 0.991785 0.088127
vn 0.042218 0.997745 -0.052172
vn 0.131770 0.991266 0.005411
vn 0.179896 0.982087 -0.056066
vn -0.080411 0.991827 0.099066
vn -0.079018 0.976959 0.198259
vn -0.025881 0.998016 -0.057390
vn 0.318150 0.917361 -0.239228
vn -0.271518 0.086216 -0.958564
vn 0.138262 0.236251 -0.961805
vn 0.136017 -0.415640 -0.899301
vn -0.405681 -0.464562 -0.787150
vn 0.324748 0.354367 -0.876905
vn 0.338336 -0.231175 -0.912188
vn -0.137095 0.412926 -0.900387
vn -0.050148 -0.227956 -0.972379
vn 0.059203 -0.892963 -0.446220
vn -0.394411 -0.861522 -0.319720
vn 0.282045 -0.760153 -0.585336
vn -0.004794 -0.483061 -0.875573
vn -0.365659 -0.929406 0.049983
vn -0.144382 -0.986588 0.076140
vn -0.006376 -0.988668 0.149982
vn -0.284395 -0.957780 0.042159
vn 0.146961 -0.976050 -0.160404
vn 0.115091 -0.980948 0.156508
vn 0.194364 -0.932367 -0.304818
vn 0.079847 -0.991397 0.103717
vn 0.067344 -0.980612 0.184024
vn -0.258830 -0.965108 0.039675
vn 0.110396 -0.959230 0.260174
vn 0.014729 -0.951187 0.308264
vn 0.978770 -0.177730 -0.102082
vn 0.921241 -0.167183 -0.351234
vn 0.838907 0.504264 -0.204826
vn 0.970596 0.231019 0.067626
vn 0.908923 -0.165234 0.382828
vn 0.937628 0.195904 0.287185
vn 0.725822 0.674406 -0.135498
vn 0.828961 0.558845 0.022724
vn 0.901047 0.372763 0.221725
vn -0.766835 -0.631370 -0.115480
vn -0.868799 -0.494061 0.033053
vn -0.997389 -0.071654 0.008938
vn -0.995964 0.089691 -0.003459
vn -0.916260 -0.373847 0.143893
vn -0.986160 0.010065 0.165492
vn -0.926042 0.369997 0.074492
vn -0.962027 0.271670 0.026462
vn -0.836735 0.525586 0.153733
s 1
g pCube1
usemtl initialShadingGroup
f 1/1/1 2/2/2 6/6/3 5/5/4
f 2/2/2 3/3/5 7/7/6 6/6/3
f 3/3/5 4/4/7 8/8/8 7/7/6
f 5/5/4 6/6/3 10/10/9 9/9/10
f 6/6/3 7/7/6 11/11/11 10/10/9
f 7/7/6 8/8/8 12/12/12 11/11/11
s 2
f 9/9/13 10/10/14 14/14/15 13/13/16
f 10/10/14 11/11/17 15/15/18 14/14/15
f 11/11/17 12/12/19 16/16/20 15/15/18
f 13/13/16 14/14/15 18/18/21 17/17/22
f 14/14/15 15/15/18 19/19/23 18/18/21
f 15/15/18 16/16/20 20/20/24 19/19/23
s 3
f 17/17/25 18/18/26 22/22/27 21/21/28
f 18/18/26 19/19/29 23/23/30 22/22/27
f 19/19/29 20/20/31 24/24/32 23/23/30
f 21/21/28 22/22/27 26/26/33 25/25/34
f 22/22/27 23/23/30 27/27/35 26/26/33
f 23/23/30 24/24/32 28/28/36 27/27/35
s 4
f 25/25/37 26/26/38 30/30/39 29/29/40
f 26/26/38 27/27/41 31/31/42 30/30/39
f 27/27/41 28/28/43 32/32/44 31/31/42
f 29/29/40 30/30/39 2/34/45 1/33/46
f 30/30/39 31/31/42 3/35/47 2/34/45
f 31/31/42 32/32/44 4/36/48 3/35/47
s 5
f 32/38/49 28/37/50 24/39/51 33/40/52
f 4/4/53 32/38/49 33/40/52 8/8/54
f 33/40/52 24/39/51 20/41/55 16/42/56
f 8/8/54 33/40/52 16/42/56 12/12/57
s 6
f 25/43/58 29/44/59 34/46/60 21/45/61
f 29/44/59 1/1/62 5/5/63 34/46/60
f 21/45/61 34/46/60 13/48/64 17/47/65
f 34/46/60 5/5/63 9/9/66 13/48/64
