# This file uses centimeters as units for non-parametric coordinates.

mtllib Snail.mtl
g default
v -0.365068 2.311722 3.794370
v 0.274619 2.311722 3.794370
v -0.365068 2.852213 3.794370
v 0.274619 2.852213 3.794370
v -0.365068 2.852213 3.291798
v 0.274619 2.852213 3.194798
v -0.365068 2.311722 3.291798
v 0.274619 2.311722 3.194798
v 0.274619 2.311722 3.361225
v -0.365068 2.311722 3.361225
v -0.365068 2.852213 3.361225
v 0.274619 2.852213 3.361225
v 0.135164 2.311722 3.361225
v 0.135431 2.311722 3.194798
v -0.220897 2.311722 3.361225
v -0.222562 2.311722 3.194798
v -0.211119 1.941927 3.229452
v -0.212784 1.941927 3.021976
v 0.145209 1.941927 3.021976
v 0.144942 1.941927 3.229452
v -0.212784 2.122113 3.021976
v 0.145209 2.121124 3.021976
v -0.179968 2.105596 3.021976
v 0.112393 2.104788 3.021976
v 0.112393 1.958444 3.021976
v -0.179968 1.958444 3.021976
v -0.189746 2.079998 2.440495
v 0.102615 2.079190 2.440495
v 0.102615 1.932846 2.440495
v -0.189746 1.932846 2.440495
v -0.244833 2.710938 3.585227
v -0.208388 2.710938 3.585227
v -0.244833 3.041993 3.585227
v -0.208388 3.041993 3.585227
v -0.244833 3.041993 3.557058
v -0.208388 3.041993 3.557058
v -0.244833 2.710938 3.557058
v -0.208388 2.710938 3.557058
v -0.244833 3.041993 3.585227
v -0.208388 3.041993 3.585227
v -0.208388 3.041993 3.557058
v -0.244833 3.041993 3.557058
v 0.071712 2.710938 3.691765
v 0.108158 2.710938 3.691765
v 0.071712 3.004732 3.691765
v 0.108158 3.004732 3.691765
v 0.071712 3.004732 3.663596
v 0.108158 3.004732 3.663596
v 0.071712 2.710938 3.663596
v 0.108158 2.710938 3.663596
v 0.071712 3.004732 3.691765
v 0.108158 3.004732 3.691765
v 0.108158 3.004732 3.663596
v 0.071712 3.004732 3.663596
vt 0.336585 0.610152
vt 0.359542 0.610152
vt 0.359542 0.630374
vt 0.336585 0.630374
vt 0.308140 0.600156
vt 0.308140 0.601143
vt 0.304339 0.601143
vt 0.304339 0.600156
vt 0.304339 0.596720
vt 0.304926 0.596720
vt 0.308140 0.604700
vt 0.307033 0.604700
vt 0.305186 0.604700
vt 0.304339 0.604700
vt 0.307032 0.605687
vt 0.308140 0.605687
vt 0.310886 0.594030
vt 0.311941 0.594030
vt 0.311941 0.597587
vt 0.310886 0.597587
vt 0.306696 0.597587
vt 0.306696 0.594030
vt 0.312276 0.630358
vt 0.303307 0.630358
vt 0.303307 0.610240
vt 0.312276 0.610240
vt 0.335621 0.610240
vt 0.335621 0.630358
vt 0.304339 0.605687
vt 0.305196 0.605687
vt 0.304926 0.611436
vt 0.304339 0.611436
vt 0.305196 0.605687
vt 0.305186 0.604700
vt 0.307033 0.604700
vt 0.307032 0.605687
vt 0.305186 0.604700
vt 0.464044 0.401328
vt 0.527093 0.401328
vt 0.527093 0.401328
vt 0.464044 0.401328
vt 0.307033 0.604700
vt 0.307033 0.615903
vt 0.305186 0.615903
vt 0.307033 0.615903
vt 0.305186 0.615903
vt 0.307033 0.615903
vt 0.305186 0.615903
vt 0.307033 0.615903
vt 0.305186 0.615903
vt 0.292453 0.584315
vt 0.320026 0.584315
vt 0.320026 0.610114
vt 0.292453 0.610114
vt 0.292453 0.610114
vt 0.320026 0.610114
vt 0.320026 0.635914
vt 0.292453 0.635914
vt 0.292453 0.635914
vt 0.320026 0.635914
vt 0.320026 0.661713
vt 0.292453 0.661713
vt 0.320026 0.687513
vt 0.292453 0.687513
vt 0.347600 0.584315
vt 0.347600 0.610114
vt 0.264880 0.584315
vt 0.264880 0.610114
vt 0.292453 0.584315
vt 0.320026 0.584315
vt 0.320026 0.610114
vt 0.292453 0.610114
vt 0.292453 0.610114
vt 0.320026 0.610114
vt 0.320026 0.635914
vt 0.292453 0.635914
vt 0.292453 0.635914
vt 0.320026 0.635914
vt 0.320026 0.661713
vt 0.292453 0.661713
vt 0.320026 0.687513
vt 0.292453 0.687513
vt 0.347600 0.584315
vt 0.347600 0.610114
vt 0.264880 0.584315
vt 0.264880 0.610114
vn 0.000000 0.000000 1.000000
vn 0.000000 0.000000 1.000000
vn 0.000000 0.000000 1.000000
vn 0.000000 0.000000 1.000000
vn 0.000000 1.000000 0.000000
vn 0.000000 1.000000 0.000000
vn 0.000000 1.000000 0.000000
vn 0.000000 1.000000 0.000000
vn 0.000000 1.000000 0.000000
vn 0.000000 1.000000 0.000000
vn -0.149568 0.068791 -0.986356
vn -0.149568 0.068791 -0.986356
vn -0.149568 0.068791 -0.986356
vn -0.134936 0.143726 -0.980375
vn -0.132573 0.155385 -0.978918
vn -0.149568 0.068791 -0.986356
vn 1.000000 0.000000 0.000000
vn 1.000000 0.000000 0.000000
vn 1.000000 0.000000 0.000000
vn 1.000000 0.000000 0.000000
vn 1.000000 0.000000 0.000000
vn 1.000000 0.000000 0.000000
vn -1.000000 0.000000 0.000000
vn -1.000000 0.000000 0.000000
vn -1.000000 0.000000 0.000000
vn -1.000000 0.000000 0.000000
vn -1.000000 0.000000 0.000000
vn -1.000000 0.000000 0.000000
vn 0.000000 -1.000000 0.000000
vn 0.000000 -1.000000 0.000000
vn 0.000000 -1.000000 0.000000
vn 0.000000 -1.000000 0.000000
vn 0.000000 -1.000000 0.000000
vn 0.000000 -1.000000 0.000000
vn 0.000000 -1.000000 0.000000
vn 0.000000 -1.000000 0.000000
vn 0.000000 -1.000000 0.000000
vn 0.000000 -1.000000 0.000000
vn 0.000000 -1.000000 0.000000
vn 0.000000 -1.000000 0.000000
vn -0.999693 -0.024568 -0.003131
vn -0.999693 -0.024568 -0.003131
vn -0.999693 -0.024568 -0.003131
vn -0.999693 -0.024568 -0.003131
vn -0.999693 -0.024568 -0.003131
vn 0.000000 0.000000 -1.000000
vn 0.000000 0.000000 -1.000000
vn 0.000000 0.000000 -1.000000
vn 0.000000 0.000000 -1.000000
vn 0.000000 -0.335666 0.941981
vn 0.000000 -0.335666 0.941981
vn 0.000000 -0.335666 0.941981
vn 0.000000 -0.335666 0.941981
vn 0.000918 0.663993 -0.747738
vn 0.000892 0.645159 -0.764048
vn 0.000001 0.000000 -1.000000
vn 0.000000 0.000000 -1.000000
vn 0.000000 0.000000 -1.000000
vn -0.000000 0.000000 -1.000000
vn -0.000000 0.000000 -1.000000
vn 0.000000 0.000000 -1.000000
vn 0.002761 0.999027 -0.044026
vn 0.002761 0.999027 -0.044026
vn 0.002761 0.999027 -0.044026
vn 0.002761 0.999027 -0.044026
vn 0.000000 -0.999032 0.043980
vn 0.000000 -0.999032 0.043980
vn 0.000000 -0.999032 0.043980
vn 0.000000 -0.999032 0.043980
vn -0.999859 0.000000 0.016814
vn -0.999859 0.000000 0.016814
vn -0.999859 0.000000 0.016814
vn -0.999859 0.000000 0.016814
vn 0.000000 0.000000 1.000000
vn 0.000000 0.000000 1.000000
vn 0.000000 0.000000 1.000000
vn 0.000000 0.000000 1.000000
vn 0.000000 0.000000 -1.000000
vn 0.000000 0.000000 -1.000000
vn 0.000000 0.000000 -1.000000
vn 0.000000 0.000000 -1.000000
vn 0.000000 -1.000000 0.000000
vn 0.000000 -1.000000 0.000000
vn 0.000000 -1.000000 0.000000
vn 0.000000 -1.000000 0.000000
vn 1.000000 0.000000 0.000000
vn 1.000000 0.000000 0.000000
vn 1.000000 0.000000 0.000000
vn 1.000000 0.000000 0.000000
vn -1.000000 0.000000 0.000000
vn -1.000000 0.000000 0.000000
vn -1.000000 0.000000 0.000000
vn -1.000000 0.000000 0.000000
vn 0.000000 0.000000 0.000000
vn 0.000000 0.000000 0.000000
vn 0.000000 0.000000 0.000000
vn 0.000000 0.000000 0.000000
vn 0.000000 0.000000 0.000000
vn 0.000000 0.000000 0.000000
vn 0.000000 0.000000 0.000000
vn 0.000000 0.000000 0.000000
vn 0.000000 0.000000 0.000000
vn 0.000000 0.000000 0.000000
vn 0.000000 0.000000 0.000000
vn 0.000000 0.000000 0.000000
vn 0.000000 0.000000 0.000000
vn 0.000000 0.000000 0.000000
vn 0.000000 0.000000 0.000000
vn 0.000000 0.000000 0.000000
vn 0.000000 0.000000 1.000000
vn 0.000000 0.000000 1.000000
vn 0.000000 0.000000 1.000000
vn 0.000000 0.000000 1.000000
vn 0.000000 0.000000 -1.000000
vn 0.000000 0.000000 -1.000000
vn 0.000000 0.000000 -1.000000
vn 0.000000 0.000000 -1.000000
vn 0.000000 -1.000000 0.000000
vn 0.000000 -1.000000 0.000000
vn 0.000000 -1.000000 0.000000
vn 0.000000 -1.000000 0.000000
vn 1.000000 0.000000 0.000000
vn 1.000000 0.000000 0.000000
vn 1.000000 0.000000 0.000000
vn 1.000000 0.000000 0.000000
vn -1.000000 0.000000 0.000000
vn -1.000000 0.000000 0.000000
vn -1.000000 0.000000 0.000000
vn -1.000000 0.000000 0.000000
vn 0.000000 0.000000 0.000000
vn 0.000000 0.000000 0.000000
vn 0.000000 0.000000 0.000000
vn 0.000000 0.000000 0.000000
vn 0.000000 0.000000 0.000000
vn 0.000000 0.000000 0.000000
vn 0.000000 0.000000 0.000000
vn 0.000000 0.000000 0.000000
vn 0.000000 0.000000 0.000000
vn 0.000000 0.000000 0.000000
vn 0.000000 0.000000 0.000000
vn 0.000000 0.000000 0.000000
vn 0.000000 0.000000 0.000000
vn 0.000000 0.000000 0.000000
vn 0.000000 0.000000 0.000000
vn 0.000000 0.000000 0.000000
s off
g polySurface1
usemtl initialShadingGroup
f 1/1/1 2/2/2 4/3/3 3/4/4
f 12/5/5 6/6/6 5/7/7 11/8/8 3/9/9 4/10/10
s 1
f 5/7/11 6/6/12 8/11/13 14/12/14 16/13/15 7/14/16
s off
f 9/17/17 8/18/18 6/19/19 12/20/20 4/21/21 2/22/22
f 11/23/23 5/24/24 7/25/25 10/26/26 1/27/27 3/28/28
s 2
f 10/29/29 15/30/30 13/15/31 9/16/32 2/31/33 1/32/34
s off
f 17/33/35 18/34/36 19/35/37 20/36/38
s 2
f 7/14/39 16/13/40 15/30/30 10/29/29
s off
f 15/30/41 16/13/42 21/37/43 18/34/44 17/33/45
f 27/38/46 28/39/47 29/40/48 30/41/49
f 13/15/50 15/30/51 17/33/52 20/36/53
s 1
f 16/13/15 14/12/14 22/42/54 21/37/55
f 21/37/55 22/42/54 24/43/56 23/44/57
f 19/35/58 18/34/59 26/46/60 25/45/61
f 18/34/59 21/37/55 23/44/57 26/46/60
s off
f 23/44/62 24/43/63 28/47/64 27/48/65
f 25/45/66 26/46/67 30/50/68 29/49/69
f 26/46/70 23/44/71 27/48/72 30/50/73
f 31/51/74 32/52/75 34/53/76 33/54/77
f 35/59/78 36/60/79 38/61/80 37/62/81
f 37/62/82 38/61/83 32/63/84 31/64/85
f 32/52/86 38/65/87 36/66/88 34/53/89
f 37/67/90 31/51/91 33/54/92 35/68/93
f 33/54/94 34/53/95 40/56/96 39/55/97
f 34/53/98 36/60/99 41/57/100 40/56/101
f 36/60/102 35/59/103 42/58/104 41/57/105
f 35/59/106 33/54/107 39/55/108 42/58/109
f 43/69/110 44/70/111 46/71/112 45/72/113
f 47/77/114 48/78/115 50/79/116 49/80/117
f 49/80/118 50/79/119 44/81/120 43/82/121
f 44/70/122 50/83/123 48/84/124 46/71/125
f 49/85/126 43/69/127 45/72/128 47/86/129
f 45/72/130 46/71/131 52/74/132 51/73/133
f 46/71/134 48/78/135 53/75/136 52/74/137
f 48/78/138 47/77/139 54/76/140 53/75/141
f 47/77/142 45/72/143 51/73/144 54/76/145
g default
v -0.441565 2.593979 3.725747
v -0.182748 2.593979 3.725747
v -0.441565 2.706710 3.758796
v -0.182748 2.706710 3.758796
v -0.441565 2.790102 3.474342
v -0.182748 2.790102 3.474342
v -0.441565 2.677371 3.441293
v -0.182748 2.677371 3.441293
vt 0.296193 0.209073
vt 0.306539 0.204237
vt 0.309779 0.207361
vt 0.306539 0.211151
vt 0.299852 0.220293
vt 0.306539 0.218064
vt 0.299852 0.227206
vt 0.306539 0.224978
vt 0.310217 0.227242
vt 0.306539 0.231892
vt 0.310513 0.204237
vt 0.310513 0.211151
vt 0.273227 0.220319
vt 0.276868 0.227018
vt 0.306539 0.224978
vt 0.306539 0.204237
vt 0.299852 0.227206
vt 0.308833 0.203715
vt 0.306539 0.218064
vt 0.299852 0.220293
vt 0.306539 0.211151
vt 0.306539 0.211151
vt 0.309779 0.207361
vt 0.299833 0.215771
vn 0.000000 -0.281324 0.959613
vn 0.000000 -0.281324 0.959613
vn 0.000000 -0.281324 0.959613
vn 0.000000 -0.281324 0.959613
vn 0.000000 0.959613 0.281324
vn 0.000000 0.959613 0.281324
vn 0.000000 0.959613 0.281324
vn 0.000000 0.959613 0.281324
vn 0.000000 0.281324 -0.959613
vn 0.000000 0.281324 -0.959613
vn 0.000000 0.281324 -0.959613
vn 0.000000 0.281324 -0.959613
vn 0.000000 -0.959613 -0.281324
vn 0.000000 -0.959613 -0.281324
vn 0.000000 -0.959613 -0.281324
vn 0.000000 -0.959613 -0.281324
vn 1.000000 0.000000 0.000000
vn 1.000000 0.000000 0.000000
vn 1.000000 0.000000 0.000000
vn 1.000000 0.000000 0.000000
vn -1.000000 0.000000 0.000000
vn -1.000000 0.000000 0.000000
vn -1.000000 0.000000 0.000000
vn -1.000000 0.000000 0.000000
s off
g pCube7
usemtl initialShadingGroup
f 55/104/146 56/88/147 58/107/148 57/109/149
f 57/89/150 58/108/151 60/92/152 59/106/153
f 59/91/154 60/105/155 62/94/156 61/103/157
f 61/93/158 62/101/159 56/96/160 55/95/161
f 56/102/162 62/97/163 60/98/164 58/90/165
f 61/99/166 55/87/167 57/110/168 59/100/169
g default
v -0.466590 1.995537 2.980728
v -0.378819 1.907766 2.980728
v -0.378819 1.995537 3.068498
v 0.315841 1.907766 2.980728
v 0.403612 1.995537 2.980728
v 0.315841 1.995537 3.068498
v -0.378819 2.737046 2.980728
v -0.466590 2.649275 2.980728
v -0.378819 2.649275 3.068498
v 0.403612 2.649275 2.980728
v 0.315841 2.737046 2.980728
v 0.315841 2.649275 3.068498
v -0.378819 2.649275 2.260213
v -0.466590 2.649275 2.347984
v -0.378819 2.737046 2.347984
v 0.315841 2.649275 2.260213
v 0.315841 2.737046 2.347984
v -0.378819 1.907766 2.347984
v -0.466590 1.995537 2.347984
v -0.378819 1.995537 2.260213
vt 0.942699 0.699988
vt 0.924521 0.885847
vt 0.588566 0.885847
vt 0.588566 0.542948
vt 0.924521 0.542948
vt 0.942699 0.625932
vt 0.942699 0.662858
vt 0.942699 0.728974
vt 0.939214 0.728974
vt 0.939214 0.699988
vt 0.939214 0.588802
vt 0.939214 0.617992
vt 0.970279 0.588802
vt 0.939214 0.625932
vt 0.939214 0.654918
vt 0.942699 0.621911
vt 0.970279 0.617992
vt 0.970279 0.621911
vt 0.970279 0.625932
vt 0.939214 0.662858
vt 0.942699 0.658939
vt 0.970279 0.654918
vt 0.970279 0.658939
vt 0.942699 0.695967
vt 0.942699 0.584883
vt 0.942699 0.588802
vt 0.970279 0.584883
vt 0.973764 0.588802
vt 0.942699 0.617992
vt 0.973764 0.617992
vt 0.942699 0.654918
vt 0.939214 0.692048
vt 0.942699 0.692048
vn 0.000000 0.000000 1.000000
vn 0.000000 0.000000 1.000000
vn 0.000000 0.000000 1.000000
vn 0.000000 0.000000 1.000000
vn -1.000000 0.000000 0.000000
vn -1.000000 0.000000 0.000000
vn -1.000000 0.000000 0.000000
vn -1.000000 0.000000 0.000000
vn 0.000000 1.000000 0.000000
vn 0.000000 1.000000 0.000000
vn 0.000000 1.000000 0.000000
vn 0.000000 1.000000 0.000000
vn -0.707107 -0.707107 0.000000
vn -0.707107 -0.707107 0.000000
vn -0.707107 -0.707107 0.000000
vn -0.707107 -0.707107 0.000000
vn 0.000000 -0.707105 0.707108
vn 0.000000 -0.707105 0.707108
vn 0.000000 -0.707105 0.707108
vn 0.000000 -0.707105 0.707108
vn -0.707105 0.000000 0.707108
vn -0.707105 0.000000 0.707108
vn -0.707105 0.000000 0.707108
vn -0.707105 0.000000 0.707108
vn 0.707105 0.000000 0.707109
vn 0.707105 0.000000 0.707109
vn 0.707105 0.000000 0.707109
vn 0.707105 0.000000 0.707109
vn -0.707107 0.707107 0.000000
vn -0.707107 0.707107 0.000000
vn -0.707107 0.707107 0.000000
vn -0.707107 0.707107 0.000000
vn 0.000000 0.707105 0.707108
vn 0.000000 0.707105 0.707108
vn 0.000000 0.707105 0.707108
vn 0.000000 0.707105 0.707108
vn -0.707106 0.000000 -0.707107
vn -0.707106 0.000000 -0.707107
vn -0.707106 0.000000 -0.707107
vn -0.707106 0.000000 -0.707107
vn 0.000000 0.707106 -0.707107
vn 0.000000 0.707106 -0.707107
vn 0.000000 0.707106 -0.707107
vn 0.000000 0.707106 -0.707107
vn -0.577349 -0.577349 0.577352
vn -0.577349 -0.577349 0.577352
vn -0.577349 -0.577349 0.577352
vn -0.577349 0.577349 0.577353
vn -0.577349 0.577349 0.577353
vn -0.577349 0.577349 0.577353
vn -0.577350 0.577349 -0.577352
vn -0.577350 0.577349 -0.577352
vn -0.577350 0.577349 -0.577352
vn -0.577350 -0.577350 -0.577351
vn -0.577350 -0.577350 -0.577351
vn -0.577350 -0.577350 -0.577351
s off
g polySurface2 pCube6
usemtl initialShadingGroup
f 68/123/170 74/127/171 71/139/172 65/136/173
f 70/112/174 76/113/175 81/114/176 63/115/177
f 73/129/178 79/132/179 77/141/180 69/116/181
f 64/118/182 63/119/183 81/120/184 80/111/185
f 65/136/186 64/135/187 66/137/188 68/123/189
f 63/121/190 65/136/191 71/139/192 70/122/193
f 68/123/194 67/138/195 72/140/196 74/127/197
f 70/124/198 69/116/199 77/141/200 76/125/201
f 69/126/202 71/139/203 74/127/204 73/128/205
f 76/130/206 75/117/207 82/143/208 81/142/209
f 75/131/210 77/141/211 79/132/212 78/133/213
f 63/121/214 64/135/215 65/136/216
f 69/126/217 70/122/218 71/139/219
f 75/131/220 76/125/221 77/141/222
f 80/134/223 81/142/224 82/143/225
g default
v 0.081187 2.885216 3.683432
v 0.098683 2.885216 3.683432
v 0.081187 3.257065 3.683432
v 0.098683 3.257065 3.683432
v 0.081187 3.257065 3.666574
v 0.098683 3.257065 3.666574
v 0.081187 2.885216 3.666574
v 0.098683 2.885216 3.666574
v 0.081187 3.257065 3.683432
v 0.098683 3.257065 3.683432
v 0.098683 3.257065 3.666574
v 0.081187 3.257065 3.666574
vt 0.375000 0.000000
vt 0.625000 0.000000
vt 0.625000 0.250000
vt 0.375000 0.250000
vt 0.625000 0.500000
vt 0.375000 0.500000
vt 0.625000 0.750000
vt 0.375000 0.750000
vt 0.625000 1.000000
vt 0.375000 1.000000
vt 0.875000 0.000000
vt 0.875000 0.250000
vt 0.125000 0.000000
vt 0.125000 0.250000
vt 0.375000 0.250000
vt 0.625000 0.250000
vt 0.625000 0.500000
vt 0.375000 0.500000
vn 0.000000 0.000000 1.000000
vn 0.000000 0.000000 1.000000
vn 0.000000 0.000000 1.000000
vn 0.000000 0.000000 1.000000
vn 0.000000 1.000000 0.000000
vn 0.000000 1.000000 0.000000
vn 0.000000 1.000000 0.000000
vn 0.000000 1.000000 0.000000
vn 0.000000 0.000000 -1.000000
vn 0.000000 0.000000 -1.000000
vn 0.000000 0.000000 -1.000000
vn 0.000000 0.000000 -1.000000
vn 0.000000 -1.000000 0.000000
vn 0.000000 -1.000000 0.000000
vn 0.000000 -1.000000 0.000000
vn 0.000000 -1.000000 0.000000
vn 1.000000 0.000000 0.000000
vn 1.000000 0.000000 0.000000
vn 1.000000 0.000000 0.000000
vn 1.000000 0.000000 0.000000
vn -1.000000 0.000000 0.000000
vn -1.000000 0.000000 0.000000
vn -1.000000 0.000000 0.000000
vn -1.000000 0.000000 0.000000
vn 0.000000 0.000000 0.000000
vn 0.000000 0.000000 0.000000
vn 0.000000 0.000000 0.000000
vn 0.000000 0.000000 0.000000
vn 0.000000 0.000000 0.000000
vn 0.000000 0.000000 0.000000
vn 0.000000 0.000000 0.000000
vn 0.000000 0.000000 0.000000
vn 0.000000 0.000000 0.000000
vn 0.000000 0.000000 0.000000
vn 0.000000 0.000000 0.000000
vn 0.000000 0.000000 0.000000
vn 0.000000 0.000000 0.000000
vn 0.000000 0.000000 0.000000
vn 0.000000 0.000000 0.000000
vn 0.000000 0.000000 0.000000
s off
g pCube6 polySurface5
usemtl initialShadingGroup
f 83/144/226 84/145/227 86/146/228 85/147/229
f 91/158/230 92/159/231 93/160/232 94/161/233
f 87/149/234 88/148/235 90/150/236 89/151/237
f 89/151/238 90/150/239 84/152/240 83/153/241
f 84/145/242 90/154/243 88/155/244 86/146/245
f 89/156/246 83/144/247 85/147/248 87/157/249
f 85/147/250 86/146/251 92/159/252 91/158/253
f 86/146/254 88/148/255 93/160/256 92/159/257
f 88/148/258 87/149/259 94/161/260 93/160/261
f 87/149/262 85/147/263 91/158/264 94/161/265
g default
v -0.235359 2.882573 3.580616
v -0.217863 2.882573 3.580616
v -0.235359 3.301583 3.580616
v -0.217863 3.301583 3.580616
v -0.235359 3.301583 3.563758
v -0.217863 3.301583 3.563758
v -0.235359 2.882573 3.563758
v -0.217863 2.882573 3.563758
v -0.235359 3.301583 3.580616
v -0.217863 3.301583 3.580616
v -0.217863 3.301583 3.563758
v -0.235359 3.301583 3.563758
vt 0.375000 0.000000
vt 0.625000 0.000000
vt 0.625000 0.250000
vt 0.375000 0.250000
vt 0.625000 0.500000
vt 0.375000 0.500000
vt 0.625000 0.750000
vt 0.375000 0.750000
vt 0.625000 1.000000
vt 0.375000 1.000000
vt 0.875000 0.000000
vt 0.875000 0.250000
vt 0.125000 0.000000
vt 0.125000 0.250000
vt 0.375000 0.250000
vt 0.625000 0.250000
vt 0.625000 0.500000
vt 0.375000 0.500000
vn 0.000000 0.000000 1.000000
vn 0.000000 0.000000 1.000000
vn 0.000000 0.000000 1.000000
vn 0.000000 0.000000 1.000000
vn 0.000000 1.000000 0.000000
vn 0.000000 1.000000 0.000000
vn 0.000000 1.000000 0.000000
vn 0.000000 1.000000 0.000000
vn 0.000000 0.000000 -1.000000
vn 0.000000 0.000000 -1.000000
vn 0.000000 0.000000 -1.000000
vn 0.000000 0.000000 -1.000000
vn 0.000000 -1.000000 0.000000
vn 0.000000 -1.000000 0.000000
vn 0.000000 -1.000000 0.000000
vn 0.000000 -1.000000 0.000000
vn 1.000000 0.000000 0.000000
vn 1.000000 0.000000 0.000000
vn 1.000000 0.000000 0.000000
vn 1.000000 0.000000 0.000000
vn -1.000000 0.000000 0.000000
vn -1.000000 0.000000 0.000000
vn -1.000000 0.000000 0.000000
vn -1.000000 0.000000 0.000000
vn 0.000000 0.000000 0.000000
vn 0.000000 0.000000 0.000000
vn 0.000000 0.000000 0.000000
vn 0.000000 0.000000 0.000000
vn 0.000000 0.000000 0.000000
vn 0.000000 0.000000 0.000000
vn 0.000000 0.000000 0.000000
vn 0.000000 0.000000 0.000000
vn 0.000000 0.000000 0.000000
vn 0.000000 0.000000 0.000000
vn 0.000000 0.000000 0.000000
vn 0.000000 0.000000 0.000000
vn 0.000000 0.000000 0.000000
vn 0.000000 0.000000 0.000000
vn 0.000000 0.000000 0.000000
vn 0.000000 0.000000 0.000000
s off
g pCube6 polySurface6
usemtl initialShadingGroup
f 95/162/266 96/163/267 98/164/268 97/165/269
f 103/176/270 104/177/271 105/178/272 106/179/273
f 99/167/274 100/166/275 102/168/276 101/169/277
f 101/169/278 102/168/279 96/170/280 95/171/281
f 96/163/282 102/172/283 100/173/284 98/164/285
f 101/174/286 95/162/287 97/165/288 99/175/289
f 97/165/290 98/164/291 104/177/292 103/176/293
f 98/164/294 100/166/295 105/178/296 104/177/297
f 100/166/298 99/167/299 106/179/300 105/178/301
f 99/167/302 97/165/303 103/176/304 106/179/305
