# This file uses centimeters as units for non-parametric coordinates.

mtllib torso.mtl
g default
v 2.689137 3.892684 1.812583
v 3.450680 3.892684 1.812583
v 2.796799 4.009390 1.696901
v 3.353137 4.009390 1.696901
v 2.796799 4.009390 0.715468
v 3.353137 4.009390 0.715468
v 2.689137 3.892684 0.599785
v 3.450680 3.892684 0.599785
v 2.559552 4.189093 1.819818
v 3.590384 4.189093 1.819818
v 3.590384 4.189093 0.592550
v 2.559552 4.189093 0.592550
v 2.559552 4.280515 1.819818
v 3.590384 4.280515 1.819818
v 3.590384 4.280515 0.592550
v 2.559552 4.280515 0.592550
v 2.654510 3.781793 0.547260
v 3.495427 3.781793 0.547260
v 3.448488 3.781793 1.865108
v 2.701449 3.781793 1.865108
v 2.748657 3.755590 0.630541
v 3.401279 3.755590 0.630541
v 3.401279 3.755590 1.781828
v 2.748657 3.755590 1.781828
v 2.886374 3.514905 0.696550
v 3.263563 3.514905 0.696550
v 3.263563 3.514905 1.715819
v 2.886374 3.514905 1.715819
v 2.701449 3.688619 0.518615
v 3.448488 3.688619 0.518615
v 3.401279 3.662416 0.590108
v 2.748657 3.662416 0.590108
v 2.701449 3.716834 1.898119
v 3.448488 3.716834 1.898119
v 2.748657 3.690631 1.826626
v 3.401279 3.690631 1.826626
v 2.804547 3.633226 0.666600
v 2.804547 3.633226 1.745768
v 3.345389 3.633226 1.745768
v 3.345389 3.633226 0.666600
v 2.748657 3.766078 0.592123
v 3.401279 3.766078 0.592123
v 3.380838 3.643715 0.628182
v 2.769098 3.643715 0.628182
vt 0.309349 0.533270
vt 0.353230 0.533270
vt 0.309349 0.577151
vt 0.353230 0.577151
vt 0.309349 0.621031
vt 0.353230 0.621031
vt 0.309349 0.664912
vt 0.353230 0.664912
vt 0.309349 0.708793
vt 0.353230 0.708793
vt 0.397111 0.533270
vt 0.397111 0.577151
vt 0.265468 0.533270
vt 0.265468 0.577151
vt 0.309349 0.577151
vt 0.353230 0.577151
vt 0.353230 0.621031
vt 0.309349 0.621031
vt 0.309349 0.577151
vt 0.353230 0.577151
vt 0.353230 0.621031
vt 0.309349 0.621031
vt 0.309349 0.664912
vt 0.353230 0.664912
vt 0.353230 0.708793
vt 0.309349 0.708793
vt 0.309349 0.664912
vt 0.300151 0.231791
vt 0.353230 0.708793
vt 0.309349 0.708793
vt 0.635849 0.586605
vt 0.679730 0.586605
vt 0.679730 0.630486
vt 0.635849 0.630486
vt 0.309349 0.664912
vt 0.353230 0.664912
vt 0.353230 0.664912
vt 0.309349 0.664912
vt 0.353230 0.708793
vt 0.309349 0.708793
vt 0.309349 0.708793
vt 0.353230 0.708793
vt 0.256270 0.231791
vt 0.635849 0.630486
vt 0.679730 0.630486
vt 0.300151 0.231791
vt 0.256270 0.231791
vt 0.300151 0.231791
vt 0.300151 0.231791
vt 0.256270 0.231791
vt 0.679730 0.586605
vt 0.679730 0.586605
vt 0.679730 0.586605
vt 0.635849 0.586605
vt 0.635849 0.586605
vt 0.635849 0.586605
vt 0.679730 0.630486
vt 0.679730 0.630486
vt 0.679730 0.630486
vt 0.353230 0.664912
vt 0.679730 0.586605
vt 0.635849 0.630486
vt 0.635849 0.630486
vt 0.635849 0.630486
vt 0.353230 0.708793
vt 0.679730 0.630486
vt 0.309349 0.708793
vt 0.635849 0.630486
vt 0.309349 0.664912
vt 0.635849 0.586605
vt 0.635849 0.630486
vt 0.635849 0.630486
vt 0.679730 0.630486
vt 0.679730 0.630486
vt 0.679730 0.586605
vt 0.635849 0.586605
vt 0.309349 0.664912
vt 0.256270 0.231791
vt 0.256270 0.231791
vt 0.300151 0.231791
vt 0.300151 0.231791
vt 0.353230 0.664912
vt 0.300151 0.231791
vt 0.300151 0.231791
vt 0.353230 0.664912
vt 0.256270 0.231791
vn 0.000000 0.703985 0.710215
vn 0.000000 0.703985 0.710215
vn 0.000000 0.703985 0.710215
vn 0.000000 0.703985 0.710215
vn 0.000000 1.000000 0.000000
vn 0.000000 1.000000 0.000000
vn 0.000000 1.000000 0.000000
vn 0.000000 1.000000 0.000000
vn 0.000000 0.703986 -0.710214
vn 0.000000 0.703986 -0.710214
vn 0.000000 0.703986 -0.710214
vn 0.000000 0.703986 -0.710214
vn 0.000000 -1.000000 0.000000
vn 0.000000 -1.000000 0.000000
vn 0.000000 -1.000000 0.000000
vn 0.000000 -1.000000 0.000000
vn 0.925740 0.377989 0.011399
vn 0.925486 0.378610 0.011375
vn 0.767291 0.641299 0.000000
vn 0.767291 0.641299 0.000000
vn -0.934901 0.354724 0.011458
vn -0.935066 0.354287 0.011472
vn -0.735014 0.678051 0.000000
vn -0.735014 0.678051 0.000000
vn 0.000000 -0.564569 0.825386
vn 0.000000 -0.564569 0.825386
vn 0.000000 -0.564569 0.825386
vn 0.000000 -0.564569 0.825386
vn 0.603794 -0.797140 0.000000
vn 0.603794 -0.797140 0.000000
vn 0.603794 -0.797140 0.000000
vn 0.603794 -0.797140 0.000000
vn 0.000000 -0.564569 -0.825386
vn 0.000000 -0.564569 -0.825386
vn 0.000000 -0.564569 -0.825386
vn 0.000000 -0.564569 -0.825386
vn -0.603794 -0.797140 0.000000
vn -0.603794 -0.797140 0.000000
vn -0.603794 -0.797140 0.000000
vn -0.603794 -0.797140 0.000000
vn 0.000000 0.000000 1.000000
vn 0.000000 0.000000 1.000000
vn 0.000000 0.000000 1.000000
vn 0.000000 0.000000 1.000000
vn 1.000000 0.000000 0.000000
vn 1.000000 0.000000 0.000000
vn 1.000000 0.000000 0.000000
vn 1.000000 0.000000 0.000000
vn 0.000000 0.000000 -1.000000
vn 0.000000 0.000000 -1.000000
vn 0.000000 0.000000 -1.000000
vn 0.000000 0.000000 -1.000000
vn -1.000000 0.000000 0.000000
vn -1.000000 0.000000 0.000000
vn -1.000000 0.000000 0.000000
vn -1.000000 0.000000 0.000000
vn 0.000000 0.428072 -0.903745
vn 0.000000 0.428072 -0.903745
vn 0.000000 0.371634 -0.928379
vn 0.000000 0.372988 -0.927836
vn 0.981921 0.188412 0.018213
vn 0.981921 0.188412 0.018213
vn 0.000000 0.428073 0.903744
vn 0.000000 0.428073 0.903744
vn 0.000000 0.437101 0.899413
vn 0.000000 0.437311 0.899310
vn -0.994806 0.100101 0.018452
vn -0.994806 0.100101 0.018452
vn 0.000000 -0.938924 -0.344123
vn 0.000000 -0.938924 -0.344123
vn 0.000000 -0.938924 -0.344123
vn 0.000000 -0.938924 -0.344123
vn 0.347609 -0.937616 0.006608
vn 0.347609 -0.937616 0.006608
vn 0.347609 -0.937616 0.006608
vn 0.347609 -0.937616 0.006608
vn 0.000000 -0.938923 0.344126
vn 0.000000 -0.938923 0.344126
vn 0.000000 -0.938923 0.344126
vn 0.000000 -0.938923 0.344126
vn -0.347611 -0.937616 0.006608
vn -0.347611 -0.937616 0.006608
vn -0.347611 -0.937616 0.006608
vn -0.347611 -0.937616 0.006608
vn 0.000000 -0.282674 -0.959216
vn 0.000000 -0.282674 -0.959216
vn 0.000000 -0.282674 -0.959216
vn 0.000000 -0.282674 -0.959216
vn 0.913675 -0.406075 0.017340
vn 0.909608 -0.415466 0.000000
vn 0.873964 -0.485990 0.000000
vn 0.875272 -0.483618 0.003476
vn 0.000000 -0.282675 0.959216
vn 0.000000 -0.282675 0.959216
vn 0.000000 -0.271146 0.962538
vn 0.000000 -0.271146 0.962538
vn -0.909608 -0.415466 0.000000
vn -0.913675 -0.406075 0.017340
vn -0.875272 -0.483619 0.003476
vn -0.873964 -0.485991 0.000000
vn 0.000000 0.293859 -0.955849
vn 0.000000 0.293859 -0.955849
vn 0.741975 -0.389241 0.545861
vn 0.741975 -0.389241 0.545861
vn 0.741975 -0.389241 0.545861
vn 0.741975 -0.389241 0.545861
vn 0.000000 -0.398081 0.917350
vn 0.000000 -0.398081 0.917350
vn 0.000000 -0.398081 0.917350
vn 0.000000 -0.398081 0.917350
vn -0.741978 -0.389240 0.545859
vn -0.741978 -0.389240 0.545859
vn -0.741977 -0.389240 0.545859
vn -0.741978 -0.389240 0.545859
vn 0.000000 0.453039 0.891491
vn 0.000000 0.453039 0.891491
vn -0.860822 -0.261479 -0.436593
vn -0.860822 -0.261479 -0.436593
vn -0.860822 -0.261479 -0.436593
vn -0.860822 -0.261479 -0.436593
vn 0.000000 -0.567722 -0.823220
vn 0.000000 -0.567722 -0.823220
vn 0.000000 -0.567722 -0.823220
vn 0.000000 -0.567722 -0.823220
vn 0.860820 -0.261481 -0.436597
vn 0.860820 -0.261481 -0.436597
vn 0.860820 -0.261481 -0.436597
vn 0.860820 -0.261481 -0.436597
vn -0.822480 -0.568794 0.000000
vn -0.822480 -0.568794 0.000000
vn 0.000000 -0.245378 0.969428
vn 0.000000 -0.245378 0.969427
vn 0.822481 -0.568793 0.000000
vn 0.822481 -0.568793 0.000000
vn 0.000000 -0.245379 -0.969427
vn 0.000000 -0.245379 -0.969427
vn 0.000000 -0.245379 -0.969427
vn 0.000000 -0.245379 -0.969427
vn 0.000000 0.964700 0.263351
vn 0.000000 0.964700 0.263351
vn 0.000000 0.964700 0.263351
vn 0.000000 0.964700 0.263351
vn 0.911356 -0.174374 0.372860
vn 0.911356 -0.174374 0.372860
vn 0.000000 -0.964698 -0.263359
vn 0.000000 -0.964698 -0.263359
vn 0.000000 -0.964698 -0.263359
vn 0.000000 -0.964698 -0.263359
vn -0.911355 -0.174375 0.372860
vn -0.911355 -0.174375 0.372860
s off
g pCube1
usemtl initialShadingGroup
f 1/1/1 2/2/2 4/4/3 3/3/4
f 13/19/5 14/20/6 15/21/7 16/22/8
f 5/5/9 6/6/10 8/8/11 7/7/12
f 25/69/13 26/60/14 27/65/15 28/67/16
s 1
f 2/2/17 8/11/18 6/12/19 4/4/20
s 2
f 7/13/21 1/1/22 3/3/23 5/14/24
s off
f 3/3/25 4/4/26 10/16/27 9/15/28
f 4/4/29 6/6/30 11/17/31 10/16/32
f 6/6/33 5/5/34 12/18/35 11/17/36
f 5/5/37 3/3/38 9/15/39 12/18/40
f 9/15/41 10/16/42 14/20/43 13/19/44
f 10/16/45 11/17/46 15/21/47 14/20/48
f 11/17/49 12/18/50 16/22/51 15/21/52
f 12/18/53 9/15/54 13/19/55 16/22/56
s 3
f 7/7/57 8/8/58 18/24/59 17/23/60
s 1
f 8/8/18 2/10/17 19/25/61 18/24/62
s 4
f 2/10/63 1/9/64 20/26/65 19/25/66
s 2
f 1/9/22 7/7/21 17/23/67 20/26/68
s off
f 29/35/69 30/36/70 31/37/71 32/38/72
f 18/24/73 19/25/74 23/29/75 22/85/76
f 34/39/77 33/40/78 35/41/79 36/42/80
f 20/26/81 17/23/82 21/27/83 24/30/84
f 41/47/85 42/83/86 43/81/87 44/79/88
s 5
f 22/75/89 23/73/90 39/59/91 40/53/92
s 6
f 23/74/93 24/71/94 38/64/95 39/58/96
s 7
f 24/72/97 21/76/98 37/54/99 38/63/100
s 3
f 17/23/60 18/24/59 30/36/101 29/35/102
s off
f 18/24/103 22/85/104 31/37/105 30/36/106
f 22/85/107 21/27/108 32/38/109 31/37/110
f 21/27/111 17/23/112 29/35/113 32/38/114
s 4
f 19/25/66 20/26/65 33/40/115 34/39/116
s off
f 20/26/117 24/30/118 35/41/119 33/40/120
f 24/30/121 23/29/122 36/42/123 35/41/124
f 23/29/125 19/25/126 34/39/127 36/42/128
s 7
f 38/62/100 37/55/99 25/31/129 28/68/130
s 6
f 39/57/96 38/44/95 28/34/131 27/66/132
s 5
f 40/52/92 39/45/91 27/33/133 26/61/134
s off
f 37/56/135 40/51/136 26/32/137 25/70/138
f 21/27/139 22/85/140 42/82/141 41/77/142
s 5
f 22/28/89 40/84/92 43/80/143 42/48/144
s off
f 40/46/145 37/43/146 44/50/147 43/49/148
s 7
f 37/43/99 21/86/98 41/78/149 44/50/150
