# This file uses centimeters as units for non-parametric coordinates.

mtllib trap.mtl
g default
v 1.857205 0.163365 1.381750
v 1.355769 0.163365 0.397627
v 0.574764 0.163365 -0.383378
v -0.409360 0.163365 -0.884814
v -1.500269 0.163365 -1.057597
v -2.591178 0.163365 -0.884814
v -3.575301 0.163365 -0.383378
v -4.356306 0.163365 0.397627
v -4.857741 0.163365 1.381751
v -5.030524 0.163365 2.472660
v -4.857741 0.163365 3.563569
v -4.356306 0.163365 4.547692
v -3.575301 0.163365 5.328696
v -2.591178 0.163365 5.830132
v -1.500269 0.163365 6.002915
v -0.409360 0.163365 5.830132
v 0.574763 0.163365 5.328696
v 1.355767 0.163365 4.547691
v 1.857203 0.163365 3.563568
v 2.029986 0.163365 2.472660
v 1.857205 0.337639 1.381750
v 1.355769 0.286445 0.397627
v 0.574764 0.286445 -0.383378
v -0.409360 0.337639 -0.884814
v -1.500269 0.337639 -1.057597
v -2.591178 0.286445 -0.884814
v -3.575301 0.286445 -0.383378
v -4.356306 0.337639 0.397627
v -4.857741 0.337639 1.381751
v -5.030524 0.286445 2.472660
v -4.857741 0.286445 3.563569
v -4.356306 0.337639 4.547692
v -3.575301 0.337639 5.328696
v -2.591178 0.286445 5.830132
v -1.500269 0.286445 6.002915
v -0.409360 0.337639 5.830132
v 0.574763 0.337639 5.328696
v 1.355767 0.286445 4.547691
v 1.857203 0.286445 3.563568
v 2.029986 0.337639 2.472660
v 1.312532 0.402783 1.558726
v 0.892442 0.402783 0.734253
v 0.238138 0.402783 0.079949
v -0.586334 0.402783 -0.340141
v -1.500269 0.402783 -0.484893
v -2.414203 0.402783 -0.340140
v -3.238675 0.402783 0.079950
v -3.892979 0.402783 0.734255
v -4.313068 0.402783 1.558726
v -4.457821 0.402783 2.472660
v -4.313068 0.402783 3.386594
v -3.892979 0.402783 4.211066
v -3.238674 0.402783 4.865370
v -2.414203 0.402783 5.285459
v -1.500269 0.402783 5.430212
v -0.586335 0.402783 5.285459
v 0.238137 0.402783 4.865369
v 0.892440 0.402783 4.211066
v 1.312530 0.402783 3.386594
v 1.457282 0.402783 2.472660
v 2.719725 0.163365 1.122011
v 2.015001 0.163365 0.459083
v 1.795184 0.286445 0.459083
v 2.499908 0.286445 1.122011
v 3.320579 0.163365 3.387015
v 3.147650 0.163365 2.318628
v 2.927833 0.286445 2.318628
v 3.100762 0.286445 3.387015
v 0.860557 0.163365 -1.639224
v -0.217224 0.163365 -1.880185
v -0.234202 0.286445 -1.691536
v 0.843580 0.286445 -1.450576
v -1.403300 0.163365 -1.695523
v -1.403300 0.286445 -1.557807
v -2.220972 0.163365 -1.361124
v -2.220972 0.286445 -1.223409
v -4.487566 0.163365 -1.024684
v -5.268013 0.163365 0.032163
v -5.132191 0.286445 0.100075
v -4.351744 0.286445 -0.956773
v -5.531611 0.163365 1.189615
v -5.395789 0.286445 1.257526
v -5.408672 0.163365 2.016968
v -5.272850 0.286445 2.084879
v -6.033272 0.163365 4.254776
v -5.374150 0.163365 5.118520
v -5.187394 0.286445 4.982698
v -5.846516 0.286445 4.118953
v -4.342162 0.163365 5.891241
v -4.155406 0.286445 5.755418
v -3.298447 0.163365 6.077865
v -3.111691 0.286445 5.942043
v -1.120418 0.163365 7.218688
v 0.017253 0.163365 6.671574
v -0.084621 0.286445 6.463626
v -1.222292 0.286445 7.010740
v 0.924595 0.163365 5.972400
v 0.822721 0.286445 5.764453
v 1.300683 0.163365 5.227303
v 1.198810 0.286445 5.019354
v 1.275252 0.310158 1.570839
v 0.860729 0.310158 0.757294
v -1.500269 0.290872 2.472660
v 0.215097 0.310158 0.111661
v -0.598448 0.310158 -0.302859
v -1.500269 0.310158 -0.445694
v -2.402090 0.310158 -0.302859
v -3.215634 0.310158 0.111662
v -3.861266 0.310158 0.757295
v -4.275787 0.310158 1.570839
v -4.418622 0.310158 2.472660
v -4.275787 0.310158 3.374481
v -3.861266 0.310158 4.188025
v -3.215633 0.310158 4.833657
v -2.402089 0.310158 5.248178
v -1.500269 0.310158 5.391013
v -0.598448 0.310158 5.248178
v 0.215096 0.310158 4.833657
v 0.860728 0.310158 4.188025
v 1.275249 0.310158 3.374481
v 1.418083 0.310158 2.472660
vt 0.280332 0.698983
vt 0.288781 0.698983
vt 0.767237 0.784394
vt 0.758300 0.784394
vt 0.770564 0.745302
vt 0.782588 0.745302
vt 0.782588 0.784394
vt 0.770564 0.784394
vt 0.326812 0.621396
vt 0.785447 0.784394
vt 0.560819 0.745302
vt 0.443810 0.572870
vt 0.451589 0.533778
vt 0.568893 0.784394
vt 0.573393 0.745302
vt 0.584821 0.745302
vt 0.584821 0.784394
vt 0.573393 0.784394
vt 0.432126 0.687393
vt 0.598382 0.745302
vt 0.442623 0.726485
vt 0.587225 0.784394
vt 0.608195 0.745302
vt 0.452772 0.726485
vt 0.459634 0.687393
vt 0.615672 0.784394
vt 0.619350 0.745302
vt 0.631142 0.745302
vt 0.631142 0.784394
vt 0.619350 0.784394
vt 0.467917 0.595432
vt 0.642695 0.745302
vt 0.476324 0.634525
vt 0.633559 0.784394
vt 0.653416 0.745302
vt 0.487625 0.634525
vt 0.496124 0.595432
vt 0.663326 0.784394
vt 0.667983 0.745302
vt 0.680775 0.745302
vt 0.680775 0.784394
vt 0.667983 0.784394
vt 0.190599 0.669195
vt 0.695295 0.745302
vt 0.201150 0.708287
vt 0.683651 0.784394
vt 0.705930 0.745302
vt 0.212418 0.708287
vt 0.219836 0.669195
vt 0.714587 0.784394
vt 0.719943 0.745302
vt 0.732932 0.745302
vt 0.732932 0.784394
vt 0.719943 0.784394
vt 0.260321 0.698983
vt 0.746495 0.745302
vt 0.269410 0.738075
vt 0.737274 0.784394
vt 0.758281 0.800654
vt 0.771175 0.827471
vt 0.758890 0.827471
vt 0.783144 0.827471
vt 0.794839 0.827471
vt 0.561901 0.800654
vt 0.562222 0.827471
vt 0.573559 0.827471
vt 0.584822 0.827471
vt 0.596248 0.800654
vt 0.596085 0.827471
vt 0.607737 0.800654
vt 0.607420 0.827471
vt 0.618898 0.827471
vt 0.630588 0.827471
vt 0.643160 0.800654
vt 0.642550 0.827471
vt 0.655437 0.800654
vt 0.654828 0.827471
vt 0.667439 0.827471
vt 0.680364 0.827471
vt 0.693760 0.800654
vt 0.693537 0.827471
vt 0.706851 0.800654
vt 0.706849 0.827471
vt 0.720162 0.827471
vt 0.733339 0.827471
vt 0.745730 0.800654
vt 0.746271 0.827471
vt 0.759027 0.785800
vt 0.584952 0.785800
vt 0.562293 0.785800
vt 0.573596 0.785800
vt 0.584823 0.785800
vt 0.596049 0.785800
vt 0.607350 0.785800
vt 0.618798 0.785800
vt 0.630465 0.785800
vt 0.642414 0.785800
vt 0.654691 0.785800
vt 0.667316 0.785800
vt 0.680270 0.785800
vt 0.693486 0.785800
vt 0.706848 0.785800
vt 0.758281 0.745302
vt 0.745730 0.745302
vt 0.561901 0.745302
vt 0.596248 0.745302
vt 0.607737 0.745302
vt 0.643160 0.745302
vt 0.655437 0.745302
vt 0.693760 0.745302
vt 0.706851 0.745302
vt 0.794970 0.745302
vt 0.804920 0.745302
vt 0.806001 0.800654
vt 0.771312 0.785800
vt 0.783267 0.785800
vt 0.794940 0.785800
vt 0.806393 0.785800
vt 0.950948 0.785800
vt 0.720212 0.785800
vt 0.733432 0.785800
vt 0.829052 0.785800
vt 0.746394 0.785800
vt 0.794385 0.745302
vt 0.806001 0.745302
vt 0.794385 0.800654
vt 0.335489 0.660488
vt 0.345705 0.660488
vt 0.806322 0.827471
vt 0.608365 0.784394
vt 0.460080 0.726485
vt 0.463758 0.726485
vt 0.452603 0.687393
vt 0.615226 0.745302
vt 0.463758 0.687393
vt 0.619350 0.745302
vt 0.598215 0.784394
vt 0.442790 0.687393
vt 0.587718 0.745302
vt 0.431633 0.726485
vt 0.653833 0.784394
vt 0.497118 0.634525
vt 0.501775 0.634525
vt 0.487209 0.595432
vt 0.662332 0.745302
vt 0.501775 0.595432
vt 0.667983 0.745302
vt 0.642532 0.784394
vt 0.476487 0.595432
vt 0.634125 0.745302
vt 0.467351 0.634525
vt 0.706283 0.784394
vt 0.220722 0.708287
vt 0.226078 0.708287
vt 0.212065 0.669195
vt 0.713701 0.745302
vt 0.226078 0.669195
vt 0.719943 0.745302
vt 0.695015 0.784394
vt 0.201430 0.669195
vt 0.684464 0.745302
vt 0.189786 0.708287
vt 0.746649 0.784394
vt 0.281061 0.738075
vt 0.269256 0.698983
vt 0.757571 0.745302
vt 0.737561 0.745302
vt 0.260034 0.738075
vt 0.289998 0.738075
vt 0.293325 0.738075
vt 0.766020 0.745302
vt 0.293325 0.698983
vt 0.770564 0.745302
vt 0.804933 0.784394
vt 0.560833 0.784394
vt 0.451870 0.572870
vt 0.456370 0.572870
vt 0.345692 0.621396
vt 0.443796 0.533778
vt 0.568611 0.745302
vt 0.456370 0.533778
vt 0.573393 0.745302
vt 0.794717 0.784394
vt 0.335742 0.621396
vt 0.786040 0.745302
vt 0.326219 0.660488
vn 0.474391 0.847246 -0.239012
vn 0.433565 0.774334 -0.460900
vn 0.433565 0.774334 -0.460900
vn 0.461751 0.824672 -0.326652
vn 0.707107 0.000000 -0.707107
vn 0.707107 0.000000 -0.707107
vn 0.707107 0.000000 -0.707107
vn 0.707107 0.000000 -0.707107
vn 0.119593 0.836394 -0.534924
vn 0.024124 0.820894 -0.570571
vn 0.018914 0.819798 -0.572340
vn 0.119593 0.836394 -0.534924
vn -0.142302 0.772469 -0.618903
vn -0.163708 0.764136 -0.623936
vn -0.262935 0.719380 -0.642929
vn -0.262935 0.719380 -0.642929
vn -0.453991 0.000000 -0.891006
vn -0.453991 0.000000 -0.891006
vn -0.453991 0.000000 -0.891006
vn -0.453991 0.000000 -0.891006
vn -0.511082 0.772239 -0.377416
vn -0.568563 0.776811 -0.270741
vn -0.570485 0.776762 -0.266809
vn -0.511082 0.772239 -0.377416
vn -0.649761 0.756726 -0.071944
vn -0.664882 0.746585 -0.023323
vn -0.695784 0.710771 0.103388
vn -0.695784 0.710771 0.103388
vn -0.987688 0.000000 0.156434
vn -0.987688 0.000000 0.156434
vn -0.987688 0.000000 0.156434
vn -0.987688 0.000000 0.156434
vn -0.373995 0.882427 0.285395
vn -0.334957 0.879966 0.336844
vn -0.327504 0.879098 0.346305
vn -0.373995 0.882427 0.285395
vn -0.246696 0.862317 0.442210
vn -0.193682 0.844634 0.499080
vn -0.104601 0.804268 0.584988
vn -0.104601 0.804268 0.584988
vn -0.156434 0.000000 0.987688
vn -0.156434 0.000000 0.987688
vn -0.156434 0.000000 0.987688
vn -0.156434 0.000000 0.987688
vn 0.203415 0.883011 0.422983
vn 0.242532 0.882297 0.403397
vn 0.247305 0.882093 0.400938
vn 0.203415 0.883011 0.422983
vn 0.347274 0.871678 0.345799
vn 0.393909 0.862552 0.317552
vn 0.495145 0.832087 0.249925
vn 0.495145 0.832087 0.249924
vn 0.891007 0.000000 0.453990
vn 0.891007 0.000000 0.453990
vn 0.891007 0.000000 0.453990
vn 0.891007 0.000000 0.453990
vn 0.487031 0.869820 -0.078831
vn 0.484924 0.866057 -0.121634
vn 0.484102 0.864590 -0.134645
vn 0.487031 0.869820 -0.078831
vn 0.080349 0.995950 -0.040334
vn 0.113632 0.987984 -0.104765
vn 0.136184 0.983584 -0.118390
vn 0.121512 0.991001 -0.056148
vn 0.078737 0.993461 -0.082680
vn 0.118390 0.983584 -0.136184
vn 0.032572 0.997040 -0.069640
vn 0.056148 0.991001 -0.121512
vn -0.016736 0.994196 -0.106270
vn -0.015851 0.991001 -0.132916
vn -0.068397 0.985100 -0.157794
vn -0.070512 0.983584 -0.166103
vn -0.054412 0.993566 -0.099328
vn -0.092935 0.983584 -0.154678
vn -0.054527 0.997120 -0.052705
vn -0.098215 0.991001 -0.090950
vn -0.099168 0.994925 -0.017024
vn -0.131309 0.991001 -0.025998
vn -0.165910 0.985994 0.017032
vn -0.179763 0.983584 0.015732
vn -0.102669 0.994586 0.016029
vn -0.175826 0.983584 0.040588
vn -0.062515 0.997434 0.034900
vn -0.116848 0.991000 0.065303
vn -0.042768 0.995326 0.086584
vn -0.065303 0.991001 0.116848
vn -0.034695 0.986258 0.161528
vn -0.040588 0.983584 0.175826
vn -0.013794 0.993671 0.111476
vn -0.015732 0.983584 0.179763
vn 0.014817 0.996865 0.077723
vn 0.025998 0.991001 0.131309
vn 0.077930 0.993707 0.080460
vn 0.090950 0.991001 0.098215
vn 0.150835 0.984521 0.089254
vn 0.154679 0.983584 0.092935
vn 0.101031 0.993696 0.048590
vn 0.166104 0.983584 0.070512
vn 0.069803 0.997509 0.010206
vn 0.132916 0.991001 0.015851
vn -0.006285 0.999978 0.002042
vn -0.005346 0.999978 0.003884
vn -0.000000 1.000000 0.000000
vn -0.003884 0.999978 0.005346
vn -0.002042 0.999978 0.006285
vn -0.000000 0.999978 0.006609
vn 0.002042 0.999978 0.006285
vn 0.003884 0.999978 0.005346
vn 0.005346 0.999978 0.003884
vn 0.006285 0.999978 0.002042
vn 0.006609 0.999978 -0.000000
vn 0.006285 0.999978 -0.002042
vn 0.005346 0.999978 -0.003884
vn 0.003884 0.999978 -0.005346
vn 0.002042 0.999978 -0.006285
vn -0.000000 0.999978 -0.006609
vn -0.002042 0.999978 -0.006285
vn -0.003884 0.999978 -0.005346
vn -0.005346 0.999978 -0.003884
vn -0.006285 0.999978 -0.002042
vn -0.006609 0.999978 0.000000
vn 0.000000 -1.000000 -0.000000
vn 0.000000 -1.000000 -0.000000
vn 0.000000 -1.000000 -0.000000
vn 0.000000 -1.000000 -0.000000
vn 0.110639 0.098799 -0.988938
vn 0.110639 0.098799 -0.988938
vn 0.110639 0.098799 -0.988938
vn 0.110639 0.098799 -0.988938
vn 0.054734 0.998105 -0.028133
vn 0.036604 0.997656 -0.057815
vn 0.000000 -1.000000 0.000000
vn 0.000000 -1.000000 0.000000
vn 0.000000 -1.000000 0.000000
vn 0.000000 -1.000000 0.000000
vn 0.027548 0.999340 0.023691
vn 0.042096 0.999090 0.006814
vn 0.128495 0.114745 0.985050
vn 0.128495 0.114745 0.985050
vn 0.128495 0.114745 0.985050
vn 0.128495 0.114745 0.985050
vn 0.000000 -1.000000 -0.000000
vn 0.000000 -1.000000 -0.000000
vn 0.000000 -1.000000 -0.000000
vn 0.000000 -1.000000 -0.000000
vn 0.031918 0.999296 -0.019738
vn 0.020913 0.998953 -0.040687
vn 0.966740 -0.110202 0.230802
vn 0.966740 -0.110202 0.230802
vn 0.966740 -0.110202 0.230802
vn 0.966740 -0.110202 0.230802
vn -0.000000 -1.000000 -0.000000
vn -0.000000 -1.000000 -0.000000
vn -0.008798 0.996758 -0.079980
vn -0.000000 -1.000000 -0.000000
vn -0.000000 -1.000000 -0.000000
vn -0.692724 0.352120 -0.629400
vn -0.692724 0.352120 -0.629400
vn -0.692724 0.352120 -0.629400
vn -0.692724 0.352120 -0.629400
vn -0.050255 0.994789 -0.088704
vn 0.000000 -1.000000 0.000000
vn 0.000000 -1.000000 0.000000
vn 0.000000 -1.000000 0.000000
vn 0.000000 -1.000000 0.000000
vn -0.011740 0.999216 -0.037808
vn -0.037860 0.998770 -0.032013
vn 0.581138 -0.097763 -0.807912
vn 0.581138 -0.097763 -0.807912
vn 0.581138 -0.097763 -0.807911
vn 0.581138 -0.097763 -0.807912
vn -0.000000 -1.000000 0.000000
vn -0.000000 -1.000000 0.000000
vn -0.072895 0.997272 -0.011576
vn -0.000000 -1.000000 0.000000
vn -0.000000 -1.000000 0.000000
vn -0.775494 0.270509 0.570468
vn -0.775495 0.270509 0.570468
vn -0.775494 0.270509 0.570468
vn -0.775494 0.270509 0.570468
vn -0.081423 0.996379 0.024475
vn -0.000000 -1.000000 -0.000000
vn -0.000000 -1.000000 -0.000000
vn -0.000000 -1.000000 -0.000000
vn -0.000000 -1.000000 -0.000000
vn -0.032184 0.999454 -0.007476
vn -0.035733 0.999284 0.012427
vn -0.496657 -0.098978 -0.862285
vn -0.496657 -0.098978 -0.862285
vn -0.496657 -0.098978 -0.862285
vn -0.496657 -0.098978 -0.862285
vn -0.000000 -1.000000 0.000000
vn -0.000000 -1.000000 0.000000
vn -0.035524 0.997805 0.055888
vn -0.000000 -1.000000 0.000000
vn -0.000000 -1.000000 0.000000
vn 0.268025 0.301526 0.915011
vn 0.268025 0.301526 0.915011
vn 0.268025 0.301526 0.915011
vn 0.268025 0.301526 0.915011
vn -0.004121 0.996263 0.086269
vn -0.000000 -1.000000 0.000000
vn 0.000000 -1.000000 0.000000
vn 0.000000 -1.000000 0.000000
vn -0.000000 -1.000000 0.000000
vn -0.011521 0.999307 0.035400
vn 0.009682 0.998761 0.048807
vn -0.947284 -0.155292 0.280244
vn -0.947284 -0.155292 0.280244
vn -0.947284 -0.155292 0.280244
vn -0.947284 -0.155292 0.280244
vn 0.000000 -1.000000 0.000000
vn 0.000000 -1.000000 0.000000
vn 0.057164 0.996178 0.066038
vn 0.000000 -1.000000 0.000000
vn 0.000000 -1.000000 0.000000
vn 0.858066 0.488617 0.158039
vn 0.858066 0.488617 0.158039
vn 0.858066 0.488617 0.158039
vn 0.858066 0.488617 0.158039
vn 0.104113 0.993519 0.045610
vn -0.875852 0.389739 0.284581
vn -0.745044 0.389740 0.541306
vn -0.745044 0.389740 0.541306
vn -0.875852 0.389739 0.284580
vn -0.541306 0.389741 0.745044
vn -0.541306 0.389741 0.745044
vn -0.284581 0.389741 0.875851
vn -0.284581 0.389741 0.875851
vn 0.000000 0.389740 0.920925
vn -0.000000 0.389740 0.920925
vn 0.284582 0.389740 0.875851
vn 0.284582 0.389740 0.875851
vn 0.541307 0.389740 0.745044
vn 0.541306 0.389740 0.745044
vn 0.745043 0.389742 0.541305
vn 0.745043 0.389742 0.541305
vn 0.875850 0.389743 0.284581
vn 0.875850 0.389743 0.284581
vn 0.920924 0.389742 0.000000
vn 0.920924 0.389742 -0.000000
vn 0.875851 0.389743 -0.284581
vn 0.875851 0.389743 -0.284581
vn 0.745043 0.389742 -0.541306
vn 0.745043 0.389742 -0.541306
vn 0.541305 0.389742 -0.745043
vn 0.541305 0.389742 -0.745043
vn 0.284581 0.389742 -0.875851
vn 0.284581 0.389742 -0.875851
vn 0.000000 0.389742 -0.920924
vn -0.000000 0.389742 -0.920924
vn -0.284581 0.389742 -0.875851
vn -0.284581 0.389742 -0.875851
vn -0.541306 0.389741 -0.745043
vn -0.541306 0.389741 -0.745043
vn -0.745044 0.389741 -0.541306
vn -0.745044 0.389741 -0.541306
vn -0.875851 0.389741 -0.284581
vn -0.875851 0.389741 -0.284581
vn -0.920925 0.389740 -0.000001
vn -0.920925 0.389739 -0.000002
s 1
g pCylinder1
usemtl initialShadingGroup
f 61/1/1 62/2/2 63/169/3 64/164/4
s off
f 2/173/5 3/6/6 23/7/7 22/8/8
s 2
f 69/9/9 70/184/10 71/127/11 72/186/12
f 70/184/10 73/178/13 74/128/14 71/127/11
f 73/179/13 75/13/15 76/176/16 74/12/14
s off
f 6/182/17 7/16/18 27/17/19 26/18/20
s 3
f 77/19/21 78/138/22 79/21/23 80/140/24
f 78/138/22 81/133/25 82/24/26 79/21/23
f 81/133/25 83/25/27 84/131/28 82/24/26
s off
f 10/136/29 11/28/30 31/29/31 30/30/32
s 4
f 85/31/33 86/149/34 87/33/35 88/151/36
f 86/149/34 89/144/37 90/36/38 87/33/35
f 89/144/37 91/37/39 92/142/40 90/36/38
s off
f 14/147/41 15/40/42 35/41/43 34/42/44
s 5
f 93/43/45 94/160/46 95/45/47 96/162/48
f 94/160/46 97/155/49 98/48/50 95/45/47
f 97/155/49 99/49/51 100/153/52 98/48/50
s off
f 18/158/53 19/52/54 39/53/55 38/54/56
s 1
f 65/55/57 66/165/58 67/57/59 68/168/60
f 66/165/58 61/1/1 64/164/4 67/57/59
s 6
f 21/59/61 22/8/62 42/60/63 41/61/64
f 22/8/62 23/7/65 43/62/66 42/60/63
f 23/7/65 24/126/67 44/63/68 43/62/66
f 24/126/67 25/114/69 45/129/70 44/63/68
f 25/64/69 26/18/71 46/66/72 45/65/70
f 26/18/71 27/17/73 47/67/74 46/66/72
f 27/17/73 28/68/75 48/69/76 47/67/74
f 28/68/75 29/70/77 49/71/78 48/69/76
f 29/70/77 30/30/79 50/72/80 49/71/78
f 30/30/79 31/29/81 51/73/82 50/72/80
f 31/29/81 32/74/83 52/75/84 51/73/82
f 32/74/83 33/76/85 53/77/86 52/75/84
f 33/76/85 34/42/87 54/78/88 53/77/86
f 34/42/87 35/41/89 55/79/90 54/78/88
f 35/41/89 36/80/91 56/81/92 55/79/90
f 36/80/91 37/82/93 57/83/94 56/81/92
f 37/82/93 38/54/95 58/84/96 57/83/94
f 38/54/95 39/53/97 59/85/98 58/84/96
f 39/53/97 40/86/99 60/87/100 59/85/98
f 40/86/99 21/59/61 41/61/64 60/87/100
s 7
f 101/88/101 102/115/102 103/122/103
f 102/115/102 104/116/104 103/122/103
f 104/116/104 105/117/105 103/122/103
f 105/117/105 106/118/106 103/122/103
f 106/90/106 107/91/107 103/89/103
f 107/91/107 108/92/108 103/89/103
f 108/92/108 109/93/109 103/89/103
f 109/93/109 110/94/110 103/89/103
f 110/94/110 111/95/111 103/89/103
f 111/95/111 112/96/112 103/89/103
f 112/96/112 113/97/113 103/89/103
f 113/97/113 114/98/114 103/89/103
f 114/98/114 115/99/115 103/89/103
f 115/99/115 116/100/116 103/89/103
f 116/100/116 117/101/117 103/89/103
f 117/101/117 118/102/118 103/89/103
f 118/119/118 119/120/119 103/122/103
f 119/120/119 120/121/120 103/122/103
f 120/121/120 121/123/121 103/122/103
f 121/123/121 101/88/101 103/122/103
s 8
f 1/103/122 2/5/123 62/171/124 61/166/125
s off
f 2/172/126 22/170/127 63/169/128 62/2/129
s 6
f 22/8/62 21/59/61 64/4/130 63/3/131
s 8
f 19/52/132 20/104/133 66/56/134 65/167/135
s 6
f 40/86/99 39/53/97 68/58/136 67/163/137
s off
f 39/53/138 19/52/139 65/167/140 68/58/141
s 8
f 20/104/133 1/103/122 61/166/125 66/56/134
s 6
f 21/59/61 40/86/99 67/163/137 64/4/130
s 9
f 3/6/142 4/124/143 70/112/144 69/185/145
s 6
f 24/126/67 23/7/65 72/10/146 71/183/147
s off
f 23/7/148 3/6/149 69/185/150 72/10/151
s 9
f 4/124/143 5/125/152 73/113/153 70/112/144
s 6
f 25/114/69 24/126/67 71/183/147 74/174/154
s 9
f 5/105/152 6/15/155 75/180/156 73/11/153
s off
f 6/181/157 26/177/158 76/176/159 75/13/160
s 6
f 26/18/71 25/64/69 74/175/154 76/14/161
s 10
f 7/16/162 8/106/163 78/20/164 77/139/165
s 6
f 28/68/75 27/17/73 80/22/166 79/137/167
s off
f 27/17/168 7/16/169 77/139/170 80/22/171
s 10
f 8/106/163 9/107/172 81/23/173 78/20/164
s 6
f 29/70/77 28/68/75 79/137/167 82/130/174
s 10
f 9/107/172 10/27/175 83/134/176 81/23/173
s off
f 10/135/177 30/132/178 84/131/179 83/25/180
s 6
f 30/30/79 29/70/77 82/130/174 84/26/181
s 11
f 11/28/182 12/108/183 86/32/184 85/150/185
s 6
f 32/74/83 31/29/81 88/34/186 87/148/187
s off
f 31/29/188 11/28/189 85/150/190 88/34/191
s 11
f 12/108/183 13/109/192 89/35/193 86/32/184
s 6
f 33/76/85 32/74/83 87/148/187 90/141/194
s 11
f 13/109/192 14/39/195 91/145/196 89/35/193
s off
f 14/146/197 34/143/198 92/142/199 91/37/200
s 6
f 34/42/87 33/76/85 90/141/194 92/38/201
s 12
f 15/40/202 16/110/203 94/44/204 93/161/205
s 6
f 36/80/91 35/41/89 96/46/206 95/159/207
s off
f 35/41/208 15/40/209 93/161/210 96/46/211
s 12
f 16/110/203 17/111/212 97/47/213 94/44/204
s 6
f 37/82/93 36/80/91 95/159/207 98/152/214
s 12
f 17/111/212 18/51/215 99/156/216 97/47/213
s off
f 18/157/217 38/154/218 100/153/219 99/49/220
s 6
f 38/54/95 37/82/93 98/152/214 100/50/221
s 13
f 41/61/222 42/60/223 102/115/224 101/88/225
f 42/60/223 43/62/226 104/116/227 102/115/224
f 43/62/226 44/63/228 105/117/229 104/116/227
f 44/63/228 45/129/230 106/118/231 105/117/229
f 45/65/230 46/66/232 107/91/233 106/90/231
f 46/66/232 47/67/234 108/92/235 107/91/233
f 47/67/234 48/69/236 109/93/237 108/92/235
f 48/69/236 49/71/238 110/94/239 109/93/237
f 49/71/238 50/72/240 111/95/241 110/94/239
f 50/72/240 51/73/242 112/96/243 111/95/241
f 51/73/242 52/75/244 113/97/245 112/96/243
f 52/75/244 53/77/246 114/98/247 113/97/245
f 53/77/246 54/78/248 115/99/249 114/98/247
f 54/78/248 55/79/250 116/100/251 115/99/249
f 55/79/250 56/81/252 117/101/253 116/100/251
f 56/81/252 57/83/254 118/102/255 117/101/253
f 57/83/254 58/84/256 119/120/257 118/102/255
f 58/84/256 59/85/258 120/121/259 119/120/257
f 59/85/258 60/87/260 121/123/261 120/121/259
f 60/87/260 41/61/222 101/88/225 121/123/261
